<?xml version="1.0" encoding="UTF-8"?>
<svg id="Ebene_1" data-name="Ebene 1" xmlns="http://www.w3.org/2000/svg" viewBox="0 0 1024 1024">
  <defs>
    <style>
      .cls-1 {
        fill: #87a0af;
      }

      .cls-2 {
        fill: #243442;
      }

      .cls-3 {
        fill: #4e6475;
      }

      .cls-4 {
        fill: #b2bfc8;
      }

      .cls-5 {
        fill: #a5bbc9;
      }

      .cls-6 {
        fill: #fff;
      }

      .cls-7 {
        fill: #8fa3af;
      }

      .cls-8 {
        fill: #1a2836;
      }

      .cls-9 {
        fill: #e8eff3;
      }

      .cls-10 {
        fill: #394c5d;
      }

      .cls-11 {
        fill: #44586a;
      }

      .cls-12 {
        fill: #3e5465;
      }

      .cls-13 {
        fill: #9caeb8;
      }

      .cls-14 {
        fill: #2d3d4b;
      }

      .cls-15 {
        fill: #677d8e;
      }

      .cls-16 {
        fill: #90a9ba;
      }

      .cls-17 {
        fill: #1d2b3b;
      }

      .cls-18 {
        fill: #596c7c;
      }

      .cls-19 {
        fill: #364655;
      }

      .cls-20 {
        fill: #a7b7c0;
      }

      .cls-21 {
        fill: #c6d6e0;
      }

      .cls-22 {
        fill: #6d8494;
      }

      .cls-23 {
        fill: #61798b;
      }

      .cls-24 {
        fill: #baccd7;
      }

      .cls-25 {
        fill: #7d95a4;
      }

      .cls-26 {
        fill: #fafcfd;
      }

      .cls-27 {
        fill: #f2f7f9;
      }

      .cls-28 {
        fill: #203242;
      }

      .cls-29 {
        fill: #dae6ed;
      }

      .cls-30 {
        fill: #1f2c3b;
      }
    </style>
  </defs>
  <path class="cls-6" d="m0,1024V0h1024v1024H0ZM315,296c-.29.33-.57.66-.86.99l-10.14,13.04c-.3.32-.6.64-.91.97-4.06,5.45-8.58,10.61-12.08,16.39-9.06,14.95-18.16,29.95-23.69,46.69-3.65,11.06-7.35,22.15-10.12,33.44-2.45,9.96-3.44,20.26-5.45,30.34-2.68,13.52-3.21,27.13-2.53,40.84.61,7.84.54,15.82,1.97,23.51,2.76,14.83,5.82,29.64,9.76,44.19,5.34,19.7,15.24,37.46,24.79,55.41,8.39,15.78,20.08,28.97,31.38,42.35,8.9,10.54,19.61,19.75,30.41,28.43,13.07,10.51,26.86,20.03,41.82,28.04,22.84,12.22,46.42,21.79,72.08,25.61,15.7,2.34,31.49,4.4,47.31,5.55,8.11.59,16.38-1.15,24.58-1.75,20.64-1.51,40.67-5.99,60.05-13.1,19.47-7.14,38.24-15.88,55.56-27.4,16.64-11.07,32.18-23.36,45.69-38.35,13.49-14.96,26.78-29.94,37.09-47.33,14.05-23.71,25.41-48.6,32.05-75.42,5.07-20.47,7.26-41.3,6.06-62.41-.62-10.18-.18-20.56-2.09-30.49-3.09-16.08-7.08-32.06-11.88-47.72-5.83-19.03-14.12-37.23-25.27-53.72-9.19-13.59-19.74-26.3-30.11-39.06-11.84-14.58-25.62-27.18-41.18-37.78-1.07-.81-2.15-1.61-3.22-2.42-3-1.95-6.01-3.9-9.01-5.85-1.02-.67-2.03-1.34-3.05-2.01-8.34-4.31-16.69-8.61-25.03-12.92-4.12-1.93-8.22-3.94-12.38-5.79-24.9-11.05-51.24-15.92-78.22-17.17-21.02-.97-42.07-.37-62.91,3.07-39.73,6.56-76.21,21.14-109.18,44.36-13.46,9.48-25.25,20.8-36.53,32.71-1.59,1.59-3.18,3.18-4.76,4.78Z"/>
  <path class="cls-30" d="m769.82,466.01c1.2,21.12-.99,41.94-6.06,62.41-6.65,26.82-18.01,51.71-32.05,75.42-10.3,17.39-23.6,32.38-37.09,47.33-13.51,14.98-29.05,27.28-45.69,38.35-17.32,11.52-36.09,20.26-55.56,27.4-19.38,7.11-39.41,11.59-60.05,13.1-8.2.6-16.47,2.34-24.58,1.75-15.82-1.15-31.61-3.22-47.31-5.55-25.65-3.82-49.24-13.39-72.08-25.61-14.96-8-28.74-17.52-41.82-28.04-10.8-8.69-21.51-17.9-30.41-28.43-11.3-13.38-22.99-26.57-31.38-42.35-9.54-17.95-19.45-35.71-24.79-55.41-3.94-14.55-7-29.37-9.76-44.19-1.43-7.69-1.36-15.66-1.97-23.51,1.78.8,3.52,1.69,5.33,2.38,2.75,1.05,5.56,1.96,8.34,2.94.42,2.65.84,5.3,1.27,7.96.27,1.6.66,3.19.78,4.81,1.1,14.49,4.63,28.45,8.96,42.25,4.43,15.81,10.56,30.91,18.98,45.04,2.94,5.29,5.72,10.68,8.87,15.85,2.08,3.41,4.71,6.5,7.09,9.73.21.74.22,1.67.67,2.2,6.02,7.13,12.11,14.2,18.18,21.28.92,1.04,1.83,2.07,2.75,3.11.55.59,1.11,1.17,1.66,1.76,13.06,11.26,25.4,23.51,39.32,33.59,35,25.37,74.27,40.07,117.57,43.43,5.65.27,11.31.53,16.96.8,3.73-.08,7.46-.15,11.19-.23,3.28-.1,6.55-.19,9.83-.29,3.21-.14,6.45-.07,9.63-.44,29.8-3.48,57.89-12.6,84.59-26.11,3.52-1.78,6.59-4.45,9.86-6.71,4.57-2.53,9.33-4.78,13.68-7.63,23.41-15.35,42.95-34.76,59.37-57.36,4.76-6.62,9.51-13.25,14.27-19.87,4.64-8.5,9.28-17.01,13.92-25.51,3.23-8.22,6.46-16.43,9.69-24.65.54-.6,1.4-1.11,1.57-1.8,2.89-12.04,5.7-24.1,8.53-36.16.32-.7.8-1.38.94-2.12,1.65-8.57,3.27-17.14,4.85-25.72.38-2.06.63-4.15.94-6.22,0-.66.01-1.32.02-1.98-.26-.38-.53-.75-.79-1.13-.06-.94-.12-1.88-.18-2.82,2.03-2.35,1.64-3.76-1.58-4.07.02-.66.04-1.32.06-1.97.96-3.1,1.61-7.06,5.72-6.79,3.9.26,5.38,3.67,6.01,7.34.15.89,1.15,1.64,1.75,2.45Zm-8.84-2.91c-.67-.48-.99-.82-1.39-.94-.23-.07-.57.2-.86.32.25.37.42.89.77,1.06.26.13.74-.2,1.48-.44Z"/>
  <path class="cls-14" d="m319.77,291.23c11.28-11.91,23.07-23.23,36.53-32.71,32.97-23.22,69.45-37.8,109.18-44.36,20.84-3.44,41.89-4.04,62.91-3.07,26.98,1.24,53.32,6.11,78.22,17.17,4.16,1.85,8.25,3.85,12.38,5.79-1.38.67-2.93,1.13-4.11,2.06-1.06.83-2.68,2.69-2.4,3.21,1.21,2.27,3.11,4.16,4.6,6.3,1.05,1.51,1.84,3.2,2.75,4.81-12.66-5.02-25.05-10.91-38.03-14.87-21.67-6.61-44.03-9.72-66.77-9.49-1.27-3.86-2.86-4.19-6.02-1.25-4.85.73-9.67,1.71-14.55,2.13-6.89.6-14.02-.12-20.7,1.32-17.66,3.8-35.3,7.85-52.63,12.91-22.82,6.66-43.05,18.94-61.6,33.36-12.89,10.02-23.97,22.36-35.85,33.67-3.74-1.95-6.15-4.46-4.89-9.21.66-2.5.67-5.17.97-7.76Z"/>
  <path class="cls-2" d="m619.83,250.42c-.91-1.61-1.7-3.3-2.75-4.81-1.49-2.14-3.39-4.03-4.6-6.3-.28-.52,1.34-2.37,2.4-3.21,1.18-.93,2.72-1.39,4.11-2.06,8.34,4.31,16.69,8.61,25.03,12.92,1.02.67,2.03,1.34,3.05,2.01,3,1.95,6.01,3.9,9.01,5.85.5,1.24,1,2.49,1.5,3.73.57-.44,1.14-.87,1.71-1.31,15.56,10.6,29.34,23.2,41.18,37.78,10.36,12.76,20.91,25.47,30.11,39.06,11.15,16.49,19.44,34.69,25.27,53.72,4.8,15.66,8.79,31.64,11.88,47.72,1.91,9.93,1.47,20.31,2.09,30.49-.61-.81-1.6-1.56-1.75-2.45-.62-3.67-2.11-7.08-6.01-7.34-4.11-.27-4.76,3.69-5.72,6.79-.4-2.04-.94-4.07-1.16-6.14-.54-5.23-.49-10.57-1.48-15.71-2.07-10.81-4.65-21.52-7.02-32.27-1.22-4.01-2.18-8.11-3.7-12-4.85-12.4-9.91-24.73-14.89-37.08-2.25-3.77-4.39-7.61-6.76-11.3-6-9.33-12.1-18.6-18.16-27.89-4.9-5.96-9.33-12.41-14.81-17.77-10.48-10.25-21.56-19.89-32.39-29.78-.37-1.22-.37-3.14-1.15-3.54-4.48-2.3-3.96-5.68-2.93-9.66.69-2.66-.2-4.6-3.71-4.96-7.42-.77-15.39.8-21.95-4.54-.39-.32-2.11,1.01-3.21,1.57-1.06-.51-2.12-1.01-3.18-1.52Z"/>
  <path class="cls-2" d="m319.77,291.23c-.3,2.59-.31,5.26-.97,7.76-1.26,4.75,1.15,7.26,4.89,9.21-4.07,5.16-8.29,10.22-12.18,15.5-3.37,4.58-6.39,9.42-9.56,14.14-10.31,15.25-18.37,31.59-23.92,49.16-5.83,13.02-8.26,26.93-10.65,40.85-.43,2.04-.96,4.06-1.29,6.12-.69,4.34-1.27,8.7-1.89,13.05-.34,4.55-1.23,9.14-.91,13.64.55,7.82-4.86,15.52-.37,23.35-2.78-.97-5.59-1.89-8.34-2.94-1.82-.69-3.56-1.58-5.33-2.38-.68-13.71-.15-27.32,2.53-40.84,2-10.08,3-20.38,5.45-30.34,2.78-11.3,6.47-22.38,10.12-33.44,5.52-16.74,14.63-31.73,23.69-46.69,3.5-5.78,8.02-10.95,12.08-16.39.3-.32.6-.64.91-.97l10.14-13.04c.29-.33.57-.66.86-.99,1.59-1.59,3.18-3.18,4.76-4.78Z"/>
  <path class="cls-14" d="m659.29,257.24c-.57.44-1.14.87-1.71,1.31-.5-1.24-1-2.49-1.5-3.73,1.07.81,2.15,1.61,3.22,2.42Z"/>
  <path class="cls-14" d="m647.06,248.97c-1.02-.67-2.03-1.34-3.05-2.01,1.02.67,2.03,1.34,3.05,2.01Z"/>
  <path class="cls-14" d="m315,296c-.29.33-.57.66-.86.99.29-.33.57-.66.86-.99Z"/>
  <path class="cls-14" d="m304.01,310.03c-.3.32-.6.64-.91.97.3-.32.6-.64.91-.97Z"/>
  <path class="cls-16" d="m489,715.01c-43.3-3.36-82.57-18.06-117.57-43.43-13.91-10.08-26.26-22.33-39.32-33.59,2.51-.84,5.03-1.68,7.54-2.51-.71-1.86-1.43-3.73-2.08-5.43.82-2.04,1.63-4.08,2.45-6.12,1.94,1.38,3.88,2.75,5.83,4.12.79-.09,1.57-.17,2.35-.26.67.68,1.34,1.37,2.02,2.05-.4.71-.8,1.43-1.21,2.14.42.52.83,1.05,1.25,1.57l.15.3c.91.89,1.82,1.78,2.73,2.67,0,0,.12-.31.12-.3.57.6,1.15,1.19,1.72,1.78.34.33.68.67,1.02,1,.67.67,1.34,1.34,2,2.01,7.81,6.31,15.23,13.2,23.52,18.81,16.65,11.25,33.79,21.79,53.16,27.92,18.68,5.91,37.42,11.61,57.33,11.3,3.66.31,7.34.52,10.99.97,2.71.33,5.37.97,8.06,1.48-3.37.28-5.29,1.92-5.11,5.49-.53-.72-1.07-1.43-.86-1.15-5.47,3.12-10.77,6.15-16.08,9.18Z"/>
  <path class="cls-1" d="m631.07,682.03c-3.28,2.26-6.34,4.93-9.86,6.71-26.7,13.51-54.79,22.63-84.59,26.11-3.18.37-6.42.3-9.63.44.73-.97,1.37-2.03,2.22-2.88,3.53-3.55,8.13-6.49,6.7-12.65,9.84-1.96,19.86-3.3,29.48-6.03,11.7-3.32,23.08-7.8,34.59-11.78,6.34-3,12.68-6,19.02-9,1.67,1.97,3.08,4.28,5.09,5.8,2.01,1.51,4.63,2.23,6.98,3.29Z"/>
  <path class="cls-29" d="m746.69,408.9c2.37,10.75,4.95,21.46,7.02,32.27.98,5.14.94,10.47,1.48,15.71.21,2.06.76,4.09,1.16,6.14-.02.66-.04,1.32-.06,1.97.53,1.36,1.05,2.71,1.58,4.07.06.94.12,1.88.18,2.82.26.38.53.75.79,1.13,0,.66-.01,1.32-.02,1.98l-3.41.26c-.05-.75-.1-1.5-.15-2.25.08-.13.26-.35.24-.38-.19-.21-.42-.37-.63-.55-3.33-5.2-6.09-6.42-9.27-4.1-4.37,3.2-5.14,8.15-1.86,12.02,3.55,4.2,5.59,4.19,10.04-.07,1.08,3.26-3.36,7.42-7.6,6.51-3.18-.69-5.3,0-7.44,2.22-.79.81-2.3.92-3.49,1.35-.41-13.02-.22-26.1-1.4-39.05-1.04-11.39-3.63-22.63-5.53-33.94,1.11-.13,2.52-.76,3.28-.3,4.64,2.8,7.38,1.39,8.86-3.52.93-3.08,2.87-4.72,6.23-4.26Z"/>
  <path class="cls-16" d="m631.07,682.03c-2.35-1.06-4.97-1.78-6.98-3.29-2.01-1.52-3.42-3.83-5.09-5.8,16.55-9.65,32.23-20.48,45.95-33.97,1.75-.36,3.7-.34,5.2-1.16,6.35-3.47,12.62-7.09,18.79-10.87,3.01-1.84,6.54-3.61,8.37-6.38,1.9-2.87,3.81-3.74,6.8-3.54-16.42,22.61-35.95,42.02-59.37,57.36-4.36,2.86-9.11,5.1-13.68,7.63Z"/>
  <path class="cls-24" d="m752.1,509.04c-2.83,12.06-5.64,24.12-8.53,36.16-.16.69-1.03,1.2-1.57,1.8-6.56,2.04-13.12,4.06-19.66,6.16-.51.16-.97.85-1.21,1.4-3.07,7.14-6.09,14.29-9.12,21.44-1.39,2.57-2.78,5.14-4.18,7.71-2.95,5.4-5.9,10.81-8.86,16.21-2.58,3.2-5.07,6.47-7.76,9.57-4.26,4.92-8.66,9.72-13.01,14.57-1.51-.4-3.01-.79-4.51-1.19,8.73-11.68,17.65-23.22,26.16-35.07,13.48-18.79,21.78-40.07,29.08-61.8.57-.27,1.44-.39,1.66-.83,1.85-3.78,3.78-7.54,5.3-11.45,1.88-4.84,11.67-8.21,16.2-4.68Z"/>
  <path class="cls-24" d="m345.84,628.05c-1.94-1.38-3.88-2.75-5.82-4.12-.31-.31-.62-.63-.94-.94-.35-.34-.7-.68-1.04-1.02h.02c-1.34-1.69-2.68-3.37-4.02-5.05-.32-.31-.64-.62-.96-.93-1.35-1.69-2.69-3.38-4.04-5.07-.66-.64-1.32-1.28-1.98-1.93-.68-1.02-1.35-2.04-2.03-3.06-2.35-3.63-4.7-7.26-7.05-10.88-4.23-6.64-8.46-13.29-12.43-19.53-4.52,3.05-8.59,5.79-12.66,8.54-8.42-14.13-14.55-29.23-18.98-45.04,4.48-.21,8.96-.41,13.45-.62.15-.48.31-.96.46-1.45,1.42,1.93,2.69,4.01,4.32,5.74.98,1.04,2.52,1.55,3.8,2.3.96,2.24,2.02,4.45,2.87,6.73,7.63,20.53,18.37,39.22,32.65,55.88,5.62,6.55,10.94,13.34,16.4,20.02-.67.14-1.35.28-2.02.42Z"/>
  <path class="cls-21" d="m295.93,545c-1.29-.75-2.83-1.26-3.8-2.3-1.63-1.74-2.9-3.81-4.32-5.74-.15.48-.31.96-.46,1.45-4.48.21-8.96.41-13.45.62-4.33-13.8-7.86-27.76-8.96-42.25-.12-1.61-.51-3.2-.78-4.81,1.34-1.31,2.51-2.87,4.05-3.86,2.46-1.57,5.18-2.75,7.78-4.09,1,0,1.99,0,2.99-.01,1,1,2,2,3,3,.62.99,1.23,1.99,1.85,2.98.73,4.83,1.71,9.63,2.14,14.48,1.23,14.04,5.25,27.36,9.94,40.53Z"/>
  <path class="cls-13" d="m333.07,615.98c.32.31.64.62.96.93.11,2.67.3,5.26,4.03,5.04,0,0-.02.01-.02.01.35.34.7.68,1.05,1.02.31.31.62.63.94.94-.82,2.04-1.63,4.08-2.45,6.12.65,1.71,1.37,3.57,2.08,5.43-2.51.84-5.03,1.68-7.54,2.51-.55-.59-1.11-1.17-1.66-1.76.36-.61.72-1.21,1.08-1.82-1.28-.43-2.56-.86-3.84-1.29-6.07-7.09-12.16-14.16-18.18-21.28-.46-.54-.46-1.46-.67-2.21.59-1.51.93-3.19,1.81-4.5,2.31-3.45,4.87-6.73,7.32-10.08,2.35,3.63,4.7,7.26,7.05,10.88.68,1.02,1.35,2.04,2.03,3.06.66.64,1.32,1.28,1.98,1.93-.45,3.12.85,4.85,4.04,5.07Z"/>
  <path class="cls-13" d="m678.21,624.06c4.34-4.85,8.74-9.65,13-14.57,2.69-3.1,5.18-6.37,7.76-9.57,1.49.03,3.01.29,4.45.05,5-.84,9.98-1.86,14.96-2.81-4.76,6.62-9.51,13.25-14.27,19.87-2.99-.2-4.9.67-6.8,3.54-1.83,2.77-5.36,4.54-8.37,6.38-6.17,3.78-12.45,7.4-18.79,10.87-1.5.82-3.46.79-5.2,1.16,4.42-4.97,8.84-9.94,13.26-14.92Z"/>
  <path class="cls-21" d="m752.1,509.04c-4.53-3.53-14.33-.16-16.2,4.68-1.52,3.92-3.45,7.67-5.3,11.45-.22.44-1.09.56-1.66.83.13-1.3.18-2.62.42-3.9,1.95-10.71,3.93-21.42,5.9-32.13,1.18-.43,2.7-.53,3.49-1.35,2.14-2.22,4.26-2.91,7.44-2.22,4.24.92,8.68-3.25,7.6-6.51l1.64-4.66c1.14-.09,2.27-.18,3.41-.26-.31,2.08-.56,4.16-.94,6.22-1.59,8.58-3.2,17.15-4.85,25.72-.14.74-.62,1.41-.94,2.12Z"/>
  <path class="cls-5" d="m718.39,597.16c-4.99.95-9.96,1.97-14.96,2.81-1.44.24-2.97-.02-4.45-.05,2.95-5.4,5.91-10.81,8.85-16.21,1.4-2.57,2.79-5.14,4.18-7.71,4.01-1.84,8.09-3.53,12-5.56,3.2-1.67,5.9-1.7,8.3,1.22-4.64,8.5-9.28,17.01-13.92,25.51Z"/>
  <path class="cls-4" d="m732.3,571.65c-2.4-2.92-5.09-2.89-8.3-1.22-3.9,2.04-7.99,3.73-12,5.56,3.03-7.15,6.05-14.31,9.12-21.44.24-.55.7-1.24,1.21-1.4,6.54-2.1,13.1-4.12,19.66-6.16-3.23,8.22-6.46,16.43-9.69,24.65Z"/>
  <path class="cls-5" d="m317.97,595.05c-2.46,3.35-5.01,6.64-7.32,10.08-.88,1.31-1.22,2.99-1.81,4.5-2.38-3.23-5-6.32-7.09-9.73-3.15-5.16-5.93-10.55-8.87-15.85,4.07-2.75,8.14-5.49,12.66-8.54,3.97,6.25,8.2,12.89,12.43,19.53Z"/>
  <path class="cls-9" d="m276.01,484.01c-2.61,1.34-5.32,2.52-7.78,4.09-1.54.98-2.72,2.55-4.05,3.86-.42-2.65-.84-5.3-1.27-7.96-4.49-7.83.92-15.53.37-23.35-.32-4.5.57-9.09.91-13.64.94,2.54,2.41,5.02,2.69,7.63.49,4.52,1.33,8.42,6.13,10.33.89.36,1.34,1.84,1.99,2.81-2.46.29-5.65-.29-7.24,1.04-3.75,3.12-3.72,7.56-1.44,11.76,1.6,2.93,5.85,3.42,8.51,1.2,5.64-4.71,5.85-7.82.91-13.68,2.7-2.36,5.4-4.73,8.1-7.09,0,8.66,0,17.32.01,25.97-.62,0-1.24,0-1.85.01-1-1-2-2-3-3-1.01-3.17-2-1.58-2.99.01Z"/>
  <path class="cls-16" d="m535.9,699.75c1.43,6.16-3.17,9.11-6.7,12.65-.85.85-1.48,1.92-2.22,2.88-3.28.09-6.55.19-9.83.29-.08-.89-.15-1.78-.23-2.67-.2-3.34-.41-6.68-.61-10.02,2.89-.99,5.79-1.98,8.68-2.98,3.64-.05,7.27-.11,10.91-.17Z"/>
  <path class="cls-25" d="m489,715.01c5.3-3.03,10.61-6.06,16.08-9.18-.21-.28.32.43.86,1.15.51,1.65,1.02,3.31,1.53,4.96-.5,1.29-1,2.58-1.5,3.87-5.65-.27-11.31-.53-16.96-.8Z"/>
  <path class="cls-22" d="m505.96,715.81c.5-1.29,1-2.58,1.5-3.87,2.9,2.76,6.14,2.31,9.46.97.08.89.15,1.78.23,2.67-3.73.08-7.46.15-11.19.23Z"/>
  <path class="cls-2" d="m757.87,469.05c-.53-1.36-1.05-2.71-1.58-4.07,3.22.31,3.61,1.72,1.58,4.07Z"/>
  <path class="cls-16" d="m327.69,633.12c1.28.43,2.56.86,3.84,1.29-.36.61-.72,1.21-1.08,1.82-.92-1.04-1.84-2.07-2.75-3.11Z"/>
  <path class="cls-2" d="m760.99,463.09c-.74.24-1.22.57-1.48.44-.35-.17-.52-.69-.77-1.06.29-.12.63-.39.86-.32.39.12.72.47,1.39.94Z"/>
  <path class="cls-21" d="m758.84,473c-.26-.38-.53-.75-.79-1.13.26.38.53.75.79,1.13Z"/>
  <path class="cls-26" d="m301.93,337.84c3.17-4.72,6.19-9.56,9.56-14.14,3.9-5.29,8.11-10.35,12.18-15.5,11.89-11.31,22.97-23.65,35.85-33.67,18.55-14.43,38.78-26.7,61.6-33.36,17.33-5.06,34.98-9.12,52.63-12.91,6.68-1.44,13.8-.72,20.7-1.32,4.87-.42,9.7-1.4,14.55-2.13-1.06,1.91-2.12,3.83-3.19,5.73-2.11,3.72-.95,6.81,2.19,9.12,3.05,2.25,6.05,1.97,8.83-.89,3.65-3.76,3.29-6.85-1.81-12.71,22.74-.23,45.1,2.89,66.77,9.49,12.98,3.96,25.38,9.85,38.03,14.87,1.06.51,2.12,1.01,3.18,1.52,10.99,7.04,21.97,14.09,32.96,21.13,10.83,9.89,21.91,19.53,32.39,29.78,5.48,5.37,9.91,11.81,14.81,17.77-2.21,3.09-4.55,6.15-1.34,9.88-5.62,3.2-6.38,3.63-10.37-.03-3.03-2.78-5.47-6.59-7.14-10.39-2.52-5.74-8.85-4.63-12.54-7.99-.28-.31-.57-.62-.85-.93-.04-4.02-2.08-6.04-6.09-6.1-.65-.59-1.31-1.18-1.96-1.77.34-4.84-3.05-5.75-6.71-6.37l-.1-.09c-.84-.69-1.68-1.38-2.52-2.07l-.32-.29c-.86-.78-1.72-1.56-2.58-2.34-.55-.38-1.1-.76-1.65-1.14l-1.17-.9.06.06c-.99-.71-1.97-1.42-2.96-2.13l-4.94-3.18c-.35-.27-.7-.55-1.06-.82-7.93-4.36-15.85-8.72-23.78-13.08-.56-.74-.97-1.83-1.71-2.16-7.29-3.27-14.56-6.63-21.99-9.56-21.35-8.41-43.58-12.88-66.43-14.48-.35-.02-.71-.04-1.06-.06-4.98.03-9.97.07-14.95.1-3.68.02-7.36.05-11.04.07-5.42.41-10.95.29-16.24,1.34-13.46,2.69-26.93,5.47-40.19,9-19.22,5.11-37.22,13.16-53.63,24.54-9.29,6.74-19.02,12.96-27.79,20.33-16.78,14.11-30.71,30.89-43.12,48.93-1.49.08-2.99.16-4.48.24l1.65,4.82c-.4.64-.79,1.29-1.19,1.93-1.29-.92-3.12-1.56-3.78-2.82-2.62-5.01-4.88-10.21-7.27-15.34Z"/>
  <path class="cls-2" d="m515.03,226.06c5.09,5.85,5.46,8.95,1.81,12.71-2.78,2.87-5.79,3.14-8.83.89-3.13-2.32-4.29-5.4-2.19-9.12,1.08-1.9,2.13-3.82,3.19-5.73,3.16-2.94,4.74-2.61,6.02,1.25Z"/>
  <path class="cls-9" d="m746.69,408.9c-3.36-.46-5.31,1.18-6.23,4.26-1.48,4.92-4.22,6.33-8.86,3.52-.76-.46-2.17.18-3.28.3-.32-1.61-.54-3.25-.97-4.83-4.89-18.12-11.56-35.55-20.31-52.16,4.18-.27,5.68,3.04,6.19,5.9.78,4.44,3.61,5.91,7.09,5.53,2.07-.22,4.48-2.26,5.68-4.15,1.33-2.09,1.46-4.94,2.11-7.47,4.98,12.35,10.04,24.68,14.89,37.08,1.52,3.89,2.48,8,3.7,12Z"/>
  <path class="cls-27" d="m728.09,359.81c-.65,2.52-.78,5.38-2.11,7.47-1.2,1.89-3.61,3.92-5.68,4.15-3.48.38-6.3-1.09-7.09-5.53-.5-2.86-2.01-6.17-6.19-5.9-2.35-3.65-4.71-7.3-7.06-10.94-.26-.34-.52-.69-.78-1.03-9.14-11.97-18.27-23.95-27.41-35.92,3.7,3.36,10.02,2.26,12.54,7.99,1.67,3.8,4.1,7.61,7.14,10.39,3.99,3.66,4.75,3.23,10.37.03-3.21-3.73-.88-6.79,1.34-9.88,6.06,9.29,12.16,18.56,18.16,27.89,2.37,3.69,4.51,7.53,6.76,11.3Z"/>
  <path class="cls-14" d="m655.97,273.07c-10.99-7.04-21.97-14.09-32.96-21.13,1.1-.56,2.83-1.88,3.21-1.57,6.56,5.34,14.52,3.77,21.95,4.54,3.51.36,4.4,2.3,3.71,4.96-1.03,3.98-1.55,7.36,2.93,9.66.78.4.79,2.32,1.15,3.54Z"/>
  <path class="cls-27" d="m301.93,337.84c2.39,5.13,4.65,10.33,7.27,15.34.66,1.25,2.49,1.89,3.78,2.82-3.04,6.31-6.09,12.62-9.13,18.94-1.94,4.03-3.86,8.06-5.79,12.09-5.53,4.26-11.06,1.56-16.62.08-1.07-.29-2.28-.08-3.42-.1,5.55-17.56,13.61-33.91,23.92-49.16Zm-14.22,45.69c.1-.85.21-1.71.31-2.56-1.59-.49-3.18-.97-4.77-1.46-.2,1.47-.4,2.95-.6,4.42,1.68-.13,3.37-.27,5.05-.4Z"/>
  <path class="cls-9" d="m278.02,387c1.14.02,2.35-.18,3.42.1,5.56,1.48,11.1,4.18,16.62-.08-1.33,4.13-2.82,8.21-3.96,12.39-2.15,7.83-4.1,15.72-6.13,23.59-5.72-1.02-10.9-.87-14.78,4.64-.68.96-3.82.19-5.83.22,2.39-13.92,4.82-27.83,10.65-40.85Z"/>
  <path class="cls-29" d="m267.36,427.85c2-.03,5.15.75,5.83-.22,3.88-5.52,9.06-5.66,14.78-4.64-1.37,12.67-2.75,25.35-4.12,38.02-2.7,2.36-5.4,4.73-8.1,7.09-.32.07-.57-.03-.75-.31-.65-.96-1.09-2.45-1.99-2.81-4.8-1.92-5.64-5.81-6.13-10.33-.29-2.61-1.76-5.09-2.69-7.63.62-4.35,1.2-8.71,1.89-13.05.32-2.06.85-4.08,1.29-6.12Z"/>
  <path class="cls-17" d="m283.85,461.01c1.37-12.67,2.75-25.35,4.12-38.02,2.03-7.87,3.99-15.75,6.13-23.59,1.15-4.18,2.63-8.26,3.96-12.39,1.93-4.03,3.85-8.06,5.79-12.09,3.04-6.32,6.09-12.63,9.13-18.94.4-.64.79-1.29,1.19-1.93.94-1.69,1.89-3.38,2.83-5.06,12.41-18.04,26.34-34.82,43.12-48.93,8.77-7.37,18.5-13.59,27.79-20.33,1.5,2.88,2.59,6.12,4.69,8.45.89.99,3.91.03,5.96.01.48,0,.96.2,1.44.31-12.74,7.99-25.27,16.26-35.65,27.33-4.15,4.31-8.3,8.62-12.45,12.94-7.04,8.97-14.08,17.95-21.12,26.92-5.32,10.08-10.63,20.15-15.95,30.23-7.98,16.8-11.88,34.66-13.72,53.05l-.34,1.88c-.22.71-.43,1.41-.65,2.12l-.82,42.99c.05,1.64-.1,3.33.19,4.92,1.91,10.39,3.92,20.75,5.9,31.13.24,1.2.48,2.41,1.05,5.26,4.14-3.94,7.4-7.05,10.66-10.15,0,0,.01-.01.01-.01,1.04-.68,2.08-1.37,3.12-2.05,4.84-4.23,9.67-8.45,14.51-12.68,1.27,4.38.18,10.65,7.9,9.85-3.21,3.26-6.43,6.51-9.64,9.77-3.06,3.31-6.12,6.62-9.18,9.93-2.97,2.84-6.12,5.52-8.82,8.6-1.08,1.23-2.11,3.74-1.57,4.96,5.67,12.76,11.67,25.37,17.88,38.68,5.64-4.77,10.14-8.57,14.64-12.38,1.68,4.39,3.35,8.79,5.03,13.18-3.31,3.34-6.63,6.69-9.95,10.04,1.53,1.96,2.73,3.77,4.19,5.32,8.04,8.58,15.68,17.61,24.35,25.49,7.92,7.2,16.7,13.6,25.64,19.52,8.36,5.53,17.15,10.62,26.28,14.74,11.56,5.23,23.66,9.28,35.52,13.84,8,1.33,16,2.66,24,3.99,4.84.48,9.76.57,14.49,1.57,3.1.65,5.05.2,6.52-2.5,1.33-1.61,2.67-3.23,4-4.84.34-.39.69-.77,1.03-1.16l-.03.04c.71-.67,1.41-1.35,2.12-2.02.29-.32.58-.64.87-.96,1.36-1.2,2.83-2.31,4.07-3.62,10.68-11.32,21.33-22.66,31.96-34.02,15.41-16.45,30.8-32.91,46.19-49.37,6.65-7,13.3-14.01,19.94-21.01.29-.3.58-.59.87-.89.68-.71,1.36-1.43,2.03-2.14.65-.66,1.3-1.33,1.96-1.99,0,0-.03,0-.03,0l1.08-1.02c1.96-1.34,3.93-2.69,5.89-4.03,3.58,5.04,5.37,5.41,10.51,1.99,5.53-3.68,11.26-7.15,14.67-13.21.45-.8,1.35-1.48,2.2-1.89,5.94-2.84,9.28-7.96,12.42-13.44,3.16-5.51,6.78-10.74,13.57-12.08-.79-4.81-1.58-9.6-2.37-14.39,1.3-1.33,2.6-2.67,3.9-4,.37-.34.73-.69,1.1-1.03,11.03-12.98,22.06-25.96,33.1-38.93,4.2-2.47,5.78-6.17,4.84-10.88-1.6-8.05-3.31-16.07-4.97-24.1-1.73-5.03-3.47-10.07-5.2-15.1.1-.82.53-1.78.25-2.43-4.63-10.71-9.29-21.41-14.21-31.99-.3-.64-3.37-.88-4.31-.18-2.47,1.86-4.47,4.35-6.65,6.58-2.43-1.87-5.08-3.52-7.21-5.68-1.3-1.33-1.78-3.45-2.63-5.22,2.1-2.57,4.19-5.15,6.29-7.72,4.54-2.9,3.82-6.14.75-9.7-4.3-4.99-8.33-10.22-12.77-15.08-2.83-3.11-6.17-5.74-9.29-8.59-1.22-.96-2.39-2.67-3.67-2.75-4.43-.28-7.01-2.91-9.32-6.16-.05-1.54.54-3.83-.25-4.51-5.42-4.68-11.14-9.02-16.76-13.47-2.33-1.06-4.66-2.12-6.99-3.18-3.43-3.52-6.87-7.03-10.17-10.42.13-2.61-.08-5.67.6-8.52.29-1.21,2.43-1.99,3.73-2.96,7.93,4.36,15.85,8.72,23.78,13.08.35.27.7.55,1.06.82l4.94,3.18c.99.71,1.97,1.42,2.96,2.13,0,0-.06-.06-.06-.06.39.3.78.6,1.17.9.55.38,1.1.76,1.65,1.14.86.78,1.72,1.56,2.58,2.34,0,0,.32.29.32.29.84.69,1.68,1.38,2.52,2.07l.1.09c2.24,2.12,4.48,4.25,6.71,6.37.65.59,1.31,1.18,1.96,1.77,2.03,2.03,4.06,4.07,6.09,6.1.28.31.57.62.85.93,9.14,11.97,18.27,23.95,27.41,35.92.26.34.52.69.78,1.03,2.35,3.65,4.71,7.3,7.06,10.94,8.75,16.62,15.42,34.05,20.31,52.16.43,1.58.65,3.22.97,4.83,1.9,11.31,4.49,22.56,5.53,33.94,1.19,12.95.99,26.03,1.4,39.05-1.97,10.71-3.95,21.41-5.9,32.13-.23,1.28-.28,2.6-.42,3.9-7.29,21.73-15.59,43.02-29.08,61.8-8.5,11.84-17.42,23.39-26.16,35.07-.74.65-1.52,1.27-2.22,1.96-14.71,14.48-29.11,29.33-47.4,39.5-9.43,5.25-18.94,10.32-28.42,15.48-11,3.72-21.81,8.25-33.06,10.95-12.64,3.03-25.69,4.4-38.55,6.5-10.69-.02-21.37-.05-32.06-.07-8.43-1.12-17-1.61-25.25-3.49-19.06-4.35-37.65-10.29-54.93-19.68-9.69-5.27-19.57-10.29-28.73-16.39-8.38-5.58-15.89-12.47-23.78-18.78-.65-.65-1.3-1.3-1.95-1.95-.38-.34-.75-.67-1.13-1.01-.68-.49-1.37-.97-2.05-1.46-.3.6-.61,1.19-.91,1.79,0,0-.12.31-.12.31-.11-1.37-.23-2.73-.34-4.1-.79.48-1.59.95-2.38,1.43,0,0-.15-.3-.15-.3.29-.87.59-1.74.88-2.6-.31-.37-.61-.74-.92-1.11-.67-.68-1.34-1.37-2.02-2.05,0,0-.33-.16-.33-.16-5.46-6.68-10.79-13.48-16.4-20.02-14.29-16.66-25.02-35.35-32.65-55.88-.85-2.28-1.91-4.49-2.87-6.73-4.7-13.17-8.72-26.49-9.94-40.53-.42-4.85-1.41-9.66-2.14-14.48,0-1,0-2,0-3,0-8.66,0-17.32-.01-25.97Zm246.21,218.13l8.96-1.09c7.82-1.25,15.86-1.74,23.43-3.87,28.57-8.04,54.54-21.31,77.54-40.21,2.8-2.73,5.72-5.35,8.39-8.2,8.49-9.04,17.36-17.78,25.21-27.35,10.67-12.99,19.73-27.22,27.17-42.29,4.13-8.36,6.9-17.38,10.28-26.11,2.3-9.01,4.6-18.02,6.9-27.04l2.78-30.05-2.48-1.07c-4.45,5.3-8.89,10.61-13.34,15.91-6.15,6.39-12.27,12.81-18.45,19.17-13.77,14.16-27.51,28.34-41.37,42.4-11.78,11.94-23.85,23.59-35.54,35.61-13.66,14.04-27.02,28.39-40.59,42.53-11.28,11.75-22.8,23.27-34,35.1-5.15,5.44-9.76,11.4-14.62,17.12.16.37.32.73.48,1.1,3.08-.55,6.16-1.11,9.24-1.66Z"/>
  <path class="cls-21" d="m359.29,638.84c7.89,6.31,15.4,13.2,23.78,18.78,9.15,6.1,19.04,11.13,28.73,16.39,17.28,9.39,35.87,15.33,54.93,19.68,8.25,1.88,16.82,2.37,25.25,3.49,0,.62,0,1.23.01,1.85-19.91.31-38.66-5.39-57.33-11.3-19.37-6.12-36.51-16.67-53.16-27.92-8.29-5.6-15.71-12.5-23.52-18.81.43-.72.87-1.45,1.3-2.17Z"/>
  <path class="cls-24" d="m492,699.04c0-.62,0-1.23-.01-1.85,10.69.02,21.37.05,32.06.07.31.89.63,1.77.94,2.66-2.89.99-5.79,1.98-8.68,2.98-1.75-.47-3.51-.94-5.26-1.41-2.68-.5-5.35-1.15-8.06-1.48-3.65-.45-7.32-.66-10.99-.97Z"/>
  <path class="cls-10" d="m511.05,701.49c1.75.47,3.51.94,5.26,1.41.21,3.34.41,6.68.61,10.02-3.33,1.34-6.56,1.79-9.46-.97-.51-1.65-1.01-3.31-1.53-4.96-.17-3.58,1.74-5.21,5.11-5.49Z"/>
  <path class="cls-24" d="m359.29,638.84c-.43.72-.87,1.45-1.3,2.17-.67-.67-1.34-1.34-2-2.01-.34-.33-.68-.67-1.02-1-.57-.59-1.14-1.18-1.72-1.78.3-.6.6-1.2.91-1.8.68.49,1.37.97,2.05,1.46.38.34.75.67,1.13,1.01.65.65,1.3,1.3,1.95,1.95Z"/>
  <path class="cls-24" d="m351.13,630.96c-.3.87-.59,1.73-.88,2.6-.41-.52-.83-1.05-1.24-1.57.71-.34,1.42-.69,2.13-1.03Z"/>
  <path class="cls-24" d="m350.4,633.86c.79-.48,1.59-.95,2.38-1.43.11,1.37.23,2.73.34,4.1-.91-.89-1.82-1.78-2.73-2.67Z"/>
  <path class="cls-21" d="m351.13,630.96c-.71.34-1.42.69-2.13,1.03.4-.71.8-1.43,1.21-2.14.31.37.61.74.92,1.11Z"/>
  <path class="cls-21" d="m354.97,638.01c.34.33.68.67,1.02,1-.34-.33-.68-.67-1.02-1Z"/>
  <path class="cls-21" d="m347.86,627.63s.33.16.33.16c-.78.09-1.57.17-2.35.26.67-.14,1.35-.28,2.02-.42Z"/>
  <path class="cls-21" d="m595.66,679.82c9.48-5.15,18.99-10.23,28.42-15.48,18.28-10.17,32.69-25.02,47.4-39.5.7-.69,1.48-1.31,2.22-1.96,1.5.4,3.01.79,4.51,1.19-4.42,4.97-8.84,9.94-13.26,14.92-13.72,13.49-29.4,24.31-45.95,33.97-6.34,3-12.68,6-19.02,9-1.44-.71-2.88-1.42-4.32-2.13Z"/>
  <path class="cls-29" d="m595.66,679.82c1.44.71,2.88,1.42,4.32,2.13-11.52,3.98-22.89,8.46-34.59,11.78-9.62,2.73-19.64,4.08-29.48,6.03-3.64.05-7.27.11-10.91.16-.32-.89-.63-1.77-.94-2.66,12.87-2.09,25.91-3.47,38.55-6.5,11.25-2.7,22.06-7.23,33.06-10.95Z"/>
  <path class="cls-8" d="m755.41,475.24l-1.64,4.66c-4.45,4.26-6.49,4.28-10.04.07-3.27-3.87-2.5-8.82,1.86-12.02,3.18-2.32,5.94-1.11,9.27,4.1.13.31.27.63.4.94.05.75.1,1.5.15,2.25Z"/>
  <path class="cls-21" d="m755.27,472.99c-.13-.31-.27-.63-.4-.94.22.18.45.35.63.55.03.03-.15.25-.24.38Z"/>
  <path class="cls-16" d="m338.05,621.95c-3.72.22-3.92-2.37-4.03-5.04,1.34,1.68,2.68,3.36,4.03,5.04Z"/>
  <path class="cls-16" d="m333.07,615.98c-3.19-.22-4.49-1.94-4.04-5.07,1.35,1.69,2.7,3.38,4.04,5.07Z"/>
  <path class="cls-16" d="m327.05,608.99c-.68-1.02-1.35-2.04-2.03-3.06.68,1.02,1.35,2.04,2.03,3.06Z"/>
  <path class="cls-16" d="m339.08,622.99c-.35-.34-.7-.68-1.05-1.02.35.34.7.68,1.05,1.02Z"/>
  <path class="cls-29" d="m283.86,486.98c0,1,0,2,0,3-.62-.99-1.23-1.99-1.85-2.98.62,0,1.24,0,1.85-.01Z"/>
  <path class="cls-29" d="m276.01,484.01c.99-1.6,1.98-3.18,2.99-.01-1,0-1.99,0-2.99.01Z"/>
  <path class="cls-8" d="m274.99,467.79c.18.28.43.38.75.31,4.94,5.86,4.73,8.97-.91,13.68-2.66,2.22-6.92,1.73-8.51-1.2-2.29-4.2-2.32-8.63,1.44-11.76,1.6-1.33,4.78-.75,7.24-1.04Z"/>
  <path class="cls-28" d="m615.16,270.95c-1.3.97-3.44,1.75-3.73,2.96-.68,2.85-.47,5.91-.6,8.52,3.31,3.39,6.74,6.9,10.17,10.42-.64.79-1.28,1.58-1.91,2.37-1.26-1.23-2.89-2.25-3.72-3.72-2.31-4.12-5.67-6.04-10.32-5.82,2.59-2.06.87-3.08-.93-4.27-11.32-7.52-23.98-11.51-37.13-14.23-12.4-3.7-24.98-6.26-38-6-1.9-.39-3.79-1.07-5.7-1.13-19.32-.62-38.64-.31-57.51,4.24-13.12,3.17-25.96,7.51-38.93,11.33-4.73,2.17-9.46,4.35-14.19,6.52-.88.38-1.76.77-2.64,1.15-3.34,1.74-6.68,3.48-10.01,5.22-.48-.11-.96-.32-1.44-.31-2.05.02-5.07.98-5.96-.01-2.1-2.33-3.19-5.58-4.69-8.45,16.41-11.38,34.42-19.42,53.63-24.54,13.26-3.53,26.73-6.32,40.19-9,5.29-1.06,10.82-.93,16.24-1.34,3.68-.02,7.36-.05,11.04-.07,4.98-.03,9.97-.07,14.95-.1.35.02.71.04,1.06.06,22.85,1.6,45.08,6.07,66.43,14.48,7.43,2.93,14.7,6.29,21.99,9.56.74.33,1.15,1.42,1.71,2.16Z"/>
  <path class="cls-27" d="m317,349c-.94,1.69-1.89,3.38-2.83,5.06-.55-1.61-1.1-3.21-1.65-4.82,1.49-.08,2.99-.16,4.48-.24Z"/>
  <path class="cls-27" d="m662.88,303.3c-2.24-2.12-4.48-4.25-6.71-6.37,3.66.62,7.06,1.53,6.71,6.37Z"/>
  <path class="cls-27" d="m670.93,311.16c-2.03-2.03-4.06-4.07-6.09-6.1,4.01.06,6.04,2.08,6.09,6.1Z"/>
  <path class="cls-21" d="m509.02,244.79c-3.68.02-7.36.05-11.04.07,3.68-.02,7.36-.05,11.04-.07Z"/>
  <path class="cls-27" d="m656.06,296.84c-.84-.69-1.68-1.38-2.52-2.07.84.69,1.68,1.38,2.52,2.07Z"/>
  <path class="cls-27" d="m653.23,294.47c-.86-.78-1.72-1.56-2.58-2.34.86.78,1.72,1.56,2.58,2.34Z"/>
  <path class="cls-27" d="m647.89,290.16c-.99-.71-1.97-1.42-2.96-2.13.99.71,1.97,1.42,2.96,2.13Z"/>
  <path class="cls-27" d="m649,291c-.39-.3-.78-.6-1.17-.9.39.3.78.6,1.17.9Z"/>
  <path class="cls-27" d="m639.99,284.85c-.35-.27-.7-.55-1.06-.82.35.27.7.55,1.06.82Z"/>
  <path class="cls-21" d="m525.03,244.75c-.35-.02-.71-.04-1.06-.06.35.02.71.04,1.06.06Z"/>
  <path class="cls-9" d="m699.98,349.05c-.26-.34-.52-.69-.78-1.03.26.34.52.69.78,1.03Z"/>
  <path class="cls-9" d="m287.71,383.53c-1.68.13-3.37.27-5.05.4.2-1.47.4-2.95.6-4.42,1.59.49,3.18.97,4.77,1.46-.1.85-.21,1.71-.31,2.56Z"/>
  <path class="cls-19" d="m457.01,673.95c-11.86-4.56-23.96-8.62-35.52-13.84-9.12-4.12-17.92-9.21-26.28-14.74-8.95-5.92-17.72-12.32-25.64-19.52-8.67-7.89-16.31-16.91-24.35-25.49-1.46-1.56-2.66-3.36-4.19-5.32,3.33-3.35,6.64-6.7,9.95-10.04.67-.33,1.34-.66,2.01-.99.63.51,1.52,1.6,1.85,1.45,3.53-1.57,6.98-3.34,10.76-5.2,3.53,3.92,5.56,4.13,10.32-.82,3.01-3.12,5.35-2.49,7.98.05.78.76,1.5,1.59,2.11,2.24,8.29-3.62,14.38-8.98,17.6-17.23.11-.29.88-.33,1.35-.49.7,9.52.58,19.19,2.33,28.51,1.72,9.14,5.88,17.56,14.69,22.5,1.31,4.75,2.29,9.62,4.02,14.21,2.62,6.96,13.84,13.68,21.12,12.06,8.99-1.99,17.77-4.99,26.59-7.68,2.67-.81,5.36-1.77,7.77-3.14,10.54-6.01,20.98-12.2,31.46-18.32,13-7.58,26.06-15.05,38.96-22.79,4.06-2.43,7.66-5.61,11.55-8.35,3.92-2.76,8.59-4.78,11.75-8.21,4.18-4.54,9.34-5.66,14.77-6.8-2.67,2.18-5.26,4.47-8.04,6.51-4.41,3.25-8.86,6.45-13.43,9.45-9.33,6.14-19.24,11.5-28.01,18.34-11.15,8.69-23.16,15.45-36.14,20.83-5.12,2.12-10.05,4.86-14.7,7.88-6.25,4.06-12.54,7.8-19.54,10.59-10.89,4.34-17.77,13.33-14.76,26.11.64,2.73,1.09,5.5,1.63,8.25Z"/>
  <path class="cls-13" d="m566.99,267.18c13.15,2.71,25.81,6.71,37.13,14.23,1.8,1.2,3.52,2.21.93,4.27-2.73,3.42-5.46,6.84-8.19,10.26-13.62,14.03-27.24,28.05-40.86,42.08-.33-.02-.67-.05-1-.07.46-3.5,2-7.75-3.13-8.81-4.5-.93-9.21-.93-13.84-1.12-10.11-.42-20.23-.67-30.35-1.07-1.12-.04-2.36-.3-3.33-.85-12.04-6.84-24.07-4.41-35.9.32-2.87,1.15-5.06,3.99-7.57,6.06-17.78-2.23-33.6,1.35-45.81,15.54-4.4,0-8.83-.31-13.2.04-6.56.54-13.07,1.6-19.62,2.32-5.66.62-11.34,1.44-17,1.4-2.11-.01-4.69-1.77-6.22-3.48-4.89-5.49-10.19-11.05-7.13-19.52,4.15-4.31,8.3-8.62,12.46-12.94,1.46,1.22,3.46,2.14,4.28,3.7,4.94,9.35,13.76,9.44,22.32,9.14,7.2-.25,14.36-1.68,21.52-2.71,7.51-1.08,15.08-1.94,22.47-3.57,7.36-1.62,14.54-4.04,21.78-6.18,8.19-2.41,16.26-5.35,24.57-7.2,5.88-1.31,12.74-3.08,17.97-1.24,6.08,2.13,11.69,2.14,17.73,2.3,14.41.38,28.34-2.18,42.05-6.2,2.2-.65,5.45-2.4,5.74-4.07,1.17-6.71,6.88-9.42,10.61-13.87,1.53-1.82,3.3-4.56,2.98-6.56-.58-3.61-2.87-6.99-7.16-7.27-3.43-.22-4.11-2.18-4.23-4.93Z"/>
  <path class="cls-20" d="m566.99,267.18c.12,2.75.8,4.71,4.23,4.93,4.29.28,6.58,3.66,7.16,7.27.32,2-1.45,4.74-2.98,6.56-3.73,4.45-9.44,7.16-10.61,13.87-.29,1.67-3.54,3.43-5.74,4.07-13.71,4.01-27.64,6.58-42.05,6.2-6.04-.16-11.65-.17-17.73-2.3-5.23-1.83-12.09-.07-17.97,1.24-8.31,1.85-16.38,4.79-24.57,7.2-7.24,2.13-14.42,4.56-21.78,6.18-7.39,1.63-14.96,2.49-22.47,3.57-7.16,1.03-14.32,2.46-21.52,2.71-8.57.29-17.39.21-22.32-9.14-.82-1.55-2.82-2.48-4.28-3.7,10.38-11.07,22.91-19.34,35.65-27.33,3.34-1.74,6.68-3.48,10.01-5.22-.86,1.34-1.42,3.12-2.63,3.95-3.07,2.1-6.58,9.93-5.15,13.55,1.67,4.22,5.75,3.15,9.12,3.15,1.6,0,3.18-.83,4.8-.98,5.69-.53,11.41-1.34,17.1-1.25,6.14.09,12.25,2.86,18.32-.93,2.74-1.71,5.95-2.97,9.11-3.62,5.46-1.14,11.07-1.59,16.59-2.43,7.79-1.19,15.54-2.74,23.37-3.63,4.68-.53,9.48-.04,14.22-.15,1.46-.04,3-.34,4.34-.91,9.85-4.25,19.69-8.53,29.47-12.95,2.94-1.33,3.3-3.5.23-5.05-5.55-2.8-11.3-5.2-16.88-7.94-1.2-.59-2.04-1.92-3.05-2.91,13.02-.26,25.6,2.3,38,6Z"/>
  <path class="cls-22" d="m301.11,438.98c1.84-18.39,5.74-36.25,13.72-53.05,1.72,2.32,3.46,4.63,5.15,6.96.74,1.02,1.19,2.36,2.13,3.09,3.62,2.81,7.5,5.28,11.07,8.15,10.82,8.7,21.49,4.03,32.09-.32,5.62-2.3,10.98-5.21,16.58-7.59,6.78-2.87,14.16-4.56,19.17-10.66.9-1.1,2.34-1.75,3.53-2.61.15,1.8.39,3.6.42,5.4.14,11.21.23,22.42.34,33.63l-1.8,11.76c-7.83,7.74-15.67,15.48-23.5,23.22-.31.07-.62.16-.92.27-.1-2.15-.12-4.32-.3-6.46-.38-4.34-2.44-6.26-7.14-5.9-5.79.44-11.72-.54-17.42.29-5.65.82-11.08,3.12-16.6,4.82-.43.13-.72.68-1.1.99-4.08,3.33-8.05,2.69-11.28-1.28-1.5-1.85-3.84-3.01-5.77-4.52-1.65-1.29-3.53-2.41-4.83-4-4.74-5.79-7.6-6.34-13.5-2.21Z"/>
  <path class="cls-10" d="m639.99,633.97c-23,18.9-48.97,32.17-77.54,40.21-7.57,2.13-15.61,2.63-23.43,3.87,2.99-3.18,5.65-6.77,9.04-9.44,4.27-3.36,9.47-5.55,13.66-8.98,10.09-8.27,17.27-19.89,29.62-25.62,1.42-.66,2.4-2.27,3.59-3.43,4.93-4.81,9.45-10.17,14.9-14.29,7.2-5.45,13.07-11.7,18.43-19.04,5.5-7.55,13.07-13.6,19.81-20.24,2.67-2.64,5.87-4.81,8.23-7.69,6.24-7.62,11.89-15.73,18.27-23.22,5.84-6.86,12.42-13.08,18.52-19.72,5.04-5.49,10.81-10.62,14.47-16.95,2.71-4.7,6.09-5.66,10.39-6.43-2.3,9.01-4.6,18.02-6.9,27.04-5.76.82-9.46,3.98-11.9,9.33-1.23,2.69-3.76,4.85-5.91,7.05-4.83,4.93-9.97,9.57-14.63,14.65-2.51,2.73-4.37,6.08-6.37,9.25-3.38,5.38-6.63,10.83-9.92,16.26-.16.27-.08.7-.26.95-4.22,5.79-8.42,11.59-12.73,17.31-1.32,1.76-2.88,3.35-4.41,4.93-1.57,1.63-3.22,3.19-4.88,4.72-1.93,1.78-4.14,3.31-5.77,5.33-.64.79-.49,3.5.06,3.76,4.48,2.17,3.52,7.12,5.67,10.41Z"/>
  <path class="cls-18" d="m682.84,374.91c2.19-2.24,4.19-4.72,6.65-6.58.93-.7,4.01-.47,4.31.18,4.92,10.58,9.58,21.28,14.21,31.99.28.65-.15,1.61-.25,2.43-2.91,3.03-5.82,6.05-8.74,9.07-.34.66-.69,1.32-1.03,1.99-1.33,2.93-2.97,5.77-3.92,8.82-1.44,4.65-.95,10.82-3.86,13.9-6.88,7.28-14.96,13.57-23.21,19.34-3.92,2.74-9.31,3.38-14.03,4.97-5.17-13.48-16.05-21.26-27.96-28.02.37-.98.74-1.97,1.11-2.95,6.92-6.36,13.85-12.71,20.77-19.07,4.37-.03,8.79.31,13.1-.21,3.69-.45,7.49-1.42,10.84-3.01,4.55-2.15,9.22-4.56,12.9-7.89,2.79-2.53,5.31-6.29,3.29-10.9-1.78-4.03-3.41-8.13-5.1-12.2.31-.62.61-1.24.92-1.86Z"/>
  <path class="cls-15" d="m301.11,438.98c5.9-4.12,8.76-3.57,13.5,2.21,1.3,1.59,3.18,2.71,4.83,4,1.93,1.51,4.27,2.67,5.77,4.52,3.23,3.97,7.2,4.62,11.28,1.28.39-.32.68-.86,1.1-.99,5.51-1.7,10.95-4,16.6-4.82,5.7-.83,11.64.15,17.42-.29,4.7-.36,6.75,1.56,7.14,5.9.19,2.15.21,4.31.3,6.46-14.01,13.97-28.01,27.95-42.02,41.93-.21-2.47-.14-5-.72-7.38-.5-2.07-1.41-5.42-2.7-5.71-10.7-2.4-21.51-9.67-32.37-.36-.41.35-1.29.17-1.94.24.27-14.33.55-28.66.82-42.99.21-.71.43-1.41.65-2.12l.34-1.88Z"/>
  <path class="cls-12" d="m717.94,502.99c-4.3.77-7.68,1.73-10.39,6.43-3.65,6.33-9.43,11.47-14.47,16.95-6.1,6.64-12.68,12.87-18.52,19.72-6.38,7.49-12.03,15.61-18.27,23.22-2.36,2.88-5.56,5.05-8.23,7.69-6.73,6.64-14.31,12.69-19.81,20.24-5.35,7.35-11.23,13.59-18.43,19.04-5.45,4.13-9.97,9.48-14.9,14.29-1.19,1.16-2.17,2.78-3.59,3.43-12.35,5.72-19.53,17.35-29.62,25.62-4.19,3.43-9.39,5.62-13.66,8.98-3.39,2.67-6.05,6.26-9.04,9.44-2.99.36-5.98.72-8.96,1.08,1.96-3.7,3.2-8.13,6.04-10.93,5.42-5.33,11.98-9.49,17.65-14.59,5.65-5.08,11.06-10.48,16.12-16.15,5.44-6.1,10.3-12.7,15.52-18.99.64-.77,2.01-.91,2.95-1.48,2.71-1.64,5.8-2.93,7.95-5.13,3.84-3.94,6.99-8.55,10.63-12.7,3.14-3.59,6.56-6.93,9.86-10.38,2.39-2.49,4.42-5.23,8.67-4.97,1.83.11,4.14-1.24,5.61-2.61,4.16-3.87,8.08-8.01,11.94-12.18,2.78-3.01,4.75-7.88,8.09-9.04,8.2-2.86,10.39-11.58,17.39-15.59,4.85-2.78,8.32-7.93,12.47-11.95,2.6-2.52,5.61-4.68,7.94-7.43,5.16-6.07,6.98-13.7,9.15-21.13.45-1.54,1.04-3.46,2.21-4.28,4.3-3,5.06-7.13,4.64-11.84,4.45-5.3,8.89-10.61,13.34-15.91l2.48,1.07-2.78,30.05Z"/>
  <path class="cls-7" d="m679.29,356.29l-6.29,7.72c-12.29,12.14-24.58,24.29-36.88,36.43-.38-2.6-.51-5.27-1.24-7.76-.39-1.32-1.77-3.24-2.81-3.32-4.75-.34-9.78-1.03-14.28.1-7.82,1.96-15.38,1.78-23.09.16,20.72-21.59,41.45-43.17,62.17-64.76,7.47,10.48,14.95,20.95,22.42,31.43Z"/>
  <path class="cls-25" d="m404.53,382.97c-1.19.86-2.63,1.51-3.53,2.61-5.01,6.1-12.39,7.78-19.17,10.66-5.59,2.37-10.96,5.28-16.58,7.59-10.6,4.35-21.26,9.02-32.09.32-3.57-2.87-7.45-5.34-11.07-8.15-.94-.73-1.39-2.07-2.13-3.09-1.7-2.34-3.43-4.64-5.15-6.96,5.32-10.08,10.63-20.15,15.95-30.23,2.76,3.49,5.97,6.72,8.16,10.54,2.03,3.55,4.55,4.72,8.41,4.85,3.91.14,8.81-.25,11.48,1.87,5.68,4.49,10.8,2.61,16.34.98,1.26-.37,2.56-.58,3.81-.95,7.71-2.28,15.46-4.46,23.08-7.01,1.27-.42,2.1-2.43,2.94-3.82,1.4-2.31.97-6.11,5.11-6.12-3.43,8.65-5.76,17.53-5.57,26.93Z"/>
  <path class="cls-11" d="m704.91,487.78c.41,4.71-.35,8.84-4.64,11.84-1.17.82-1.76,2.75-2.21,4.28-2.18,7.44-4,15.06-9.15,21.13-2.33,2.74-5.34,4.9-7.94,7.43-4.15,4.02-7.62,9.18-12.47,11.95-7,4.01-9.18,12.73-17.39,15.59-3.33,1.16-5.3,6.03-8.09,9.04-3.86,4.17-7.78,8.31-11.94,12.18-1.47,1.36-3.78,2.72-5.61,2.61-4.25-.26-6.28,2.48-8.67,4.97-3.3,3.44-6.72,6.79-9.86,10.38-3.64,4.15-6.79,8.76-10.63,12.7-2.15,2.2-5.24,3.49-7.95,5.13-.94.57-2.31.7-2.95,1.48-5.22,6.29-10.09,12.89-15.52,18.99-5.06,5.67-10.46,11.08-16.12,16.15-5.68,5.1-12.23,9.25-17.65,14.59-2.85,2.8-4.08,7.24-6.04,10.93-3.08.55-6.16,1.11-9.24,1.66-.16-.37-.32-.73-.48-1.1,4.86-5.72,9.47-11.67,14.62-17.12,11.19-11.83,22.71-23.35,34-35.1,13.57-14.13,26.92-28.48,40.59-42.53,11.69-12.02,23.77-23.67,35.54-35.61,13.87-14.06,27.61-28.24,41.37-42.4,6.18-6.36,12.3-12.78,18.45-19.17Z"/>
  <path class="cls-23" d="m323.83,531.95c3.06-3.31,6.12-6.62,9.18-9.93,5.96,3.5,12.12,6.66,19.28,5.82,2.53-.3,4.85-2.32,7.39-2.7,8.25-1.22,13.07-6.46,16.47-13.4,2.15-4.39,3.82-9.01,5.95-13.41,1.4-2.89,3.38-5.49,4.82-8.36,1.07-2.15,1.17-4.92,2.59-6.72,5.23-6.62,5.7-14.66,7.35-22.37,0,0,.07.07.07.07,1-1.05,2.01-2.11,3.01-3.16,1.29-1.39,2.58-2.78,3.87-4.18.37.15.73.3,1.1.46-.02,10.58.08,21.17-.09,31.75-.14,8.71-.6,17.42-.92,26.14-1.58,1.46-3.25,2.84-4.73,4.4-10.28,10.87-20.48,21.81-30.83,32.62-1.68,1.76-3.95,2.96-5.94,4.42-3.12-1.29-6.32-2.43-9.33-3.94-1.43-.71-2.37-2.36-3.77-3.17-8.45-4.85-16.96-9.57-25.45-14.34Z"/>
  <path class="cls-3" d="m652.97,461.01c4.72-1.59,10.12-2.22,14.03-4.97,8.24-5.77,16.33-12.06,23.21-19.34,2.91-3.08,2.42-9.26,3.86-13.9.95-3.05,2.59-5.88,3.92-8.82.17,1.64.24,3.29.51,4.91,1.13,6.62,2.93,13.19,3.35,19.85.58,9.29,2,11.71,11.23,14.26-11.03,12.98-22.06,25.96-33.1,38.93-.37.34-.73.69-1.1,1.03-1.3,1.33-2.6,2.67-3.9,4-1.37,1.41-2.72,2.83-4.1,4.22-5.27,5.3-10.54,10.6-15.82,15.9.35-.9.52-1.93,1.07-2.68,4.72-6.28,4.88-13.2,2.63-20.29-.42-1.31-2.44-2.11-3.72-3.15.07-2.26.15-4.52.22-6.78,3.83-1.99,3.82-6.07-.01-10.35-.77-4.27-1.53-8.55-2.3-12.82Z"/>
  <path class="cls-7" d="m410.11,356.04c-4.14.02-3.72,3.81-5.11,6.12-.84,1.39-1.67,3.39-2.94,3.82-7.62,2.55-15.37,4.73-23.08,7.01-1.25.37-2.56.58-3.81.95-5.54,1.63-10.66,3.52-16.34-.98-2.67-2.11-7.57-1.73-11.48-1.87-3.86-.13-6.37-1.3-8.41-4.85-2.19-3.82-5.39-7.05-8.16-10.54,7.04-8.97,14.08-17.95,21.12-26.92-3.06,8.47,2.23,14.03,7.13,19.52,1.53,1.71,4.11,3.47,6.22,3.48,5.66.04,11.34-.78,17-1.4,6.55-.72,13.06-1.78,19.62-2.32,4.37-.36,8.8-.05,13.2-.04.02.33.03.67.01,1-1.66,2.34-3.32,4.68-4.98,7.02Z"/>
  <path class="cls-11" d="m510.02,668.07c-.29.32-.58.64-.87.96-.71.67-1.41,1.35-2.12,2.02,0,0,.03-.04.02-.04-.34.39-.69.77-1.03,1.16-1.33,1.61-2.67,3.23-4,4.84-2-1.81-4.34-3.36-5.94-5.48-3.81-5.03-7.69-10.09-10.7-15.6-1.47-2.7-2.57-7.45-1.19-9.47,2.99-4.37,7.34-8.07,11.77-11.12,3.69-2.54,8.42-3.52,12.46-5.62,5.1-2.65,9.65-6.88,15.01-8.4,9.92-2.81,17.04-9.86,25.38-14.97,7.25-4.43,13.46-10.56,20.14-15.92,1.67-1.34,3.21-3.22,5.13-3.83,5.09-1.61,8.04-6.13,12.77-8.51,6.44-3.24,11.54-9.1,17.4-13.58,2.39-1.83,5.28-3,7.94-4.47-6.65,7-13.3,14.01-19.95,21.01-2.91.99-6.28,1.35-8.63,3.1-4.5,3.35-8.11,7.88-12.62,11.21-9.7,7.15-16.28,17.6-26.74,24.04-8.21,5.06-15.7,11.32-23.27,17.36-2.39,1.9-5,4.5-5.78,7.26-2.21,7.88-3.52,16.01-5.18,24.04Z"/>
  <path class="cls-19" d="m639.99,633.97c-2.15-3.29-1.19-8.24-5.67-10.41-.55-.27-.7-2.98-.06-3.76,1.63-2.01,3.84-3.55,5.77-5.33,1.67-1.53,3.31-3.09,4.88-4.72,1.53-1.58,3.09-3.17,4.41-4.93,4.3-5.73,8.5-11.53,12.73-17.31.18-.25.1-.68.26-.95,3.29-5.43,6.54-10.89,9.92-16.26,1.99-3.17,3.86-6.52,6.37-9.25,4.66-5.08,9.8-9.72,14.63-14.65,2.15-2.2,4.69-4.36,5.91-7.05,2.44-5.35,6.13-8.51,11.9-9.33-3.38,8.72-6.15,17.75-10.28,26.11-7.45,15.08-16.5,29.3-27.17,42.29-7.86,9.57-16.72,18.31-25.21,27.35-2.68,2.85-5.59,5.48-8.39,8.2Z"/>
  <path class="cls-14" d="m656.88,324.86c-20.72,21.59-41.45,43.17-62.17,64.76,0,0,.02.12.02.12-.58.4-1.17.8-1.75,1.2-2.65,2.7-5.3,5.4-7.95,8.09-1.65,1.69-3.31,3.38-4.96,5.07-.99-.74-1.87-1.81-2.98-2.15-4.09-1.24-6.21-3.79-6.07-8.11,4.04-4.15,8.07-8.29,12.11-12.44l13.87-15.31c13.01-14.01,26.02-28.03,39.04-42.04,2.99-3.35,5.98-6.7,8.97-10.05,2.31,3.25,4.89,5.88,9.32,6.16,1.28.08,2.45,1.79,3.67,2.75-.37.65-.75,1.29-1.12,1.94Z"/>
  <path class="cls-7" d="m636.04,324.07c-13.01,14.01-26.02,28.03-39.04,42.04-1.38-6.64-7.14-9.71-12.87-6.87-.72.36-1.57.46-2.32.76-5.29,2.13-10.69,4.02-15.8,6.51-3.08,1.5-5.35,2.02-7.95-.77-1.22-1.31-3.29-1.84-4.97-2.73.68-1.01,1.35-2.01,2.03-3.02,6.67-2.19,13.96-3.33,19.87-6.81,7.99-4.71,15.01-11.13,22.27-17.02,2.55-2.07,4.32-5.14,6.94-7.1,7.74-5.82,11.47-13.92,13.47-22.94.56-2.53-.43-5.4-.71-8.12.71-.92,1.41-1.84,2.12-2.76.64-.79,1.28-1.58,1.91-2.37,2.33,1.06,4.66,2.12,6.99,3.18-.35,1.78-.48,3.64-1.08,5.33-2.07,5.86-.75,11.26,2.5,16.12,1.7,2.54,4.39,4.41,6.63,6.58Z"/>
  <path class="cls-12" d="m612.19,560.05c-2.66,1.47-5.55,2.64-7.94,4.47-5.86,4.48-10.96,10.34-17.4,13.58-4.72,2.38-7.67,6.9-12.77,8.51-1.92.61-3.46,2.48-5.13,3.83-6.68,5.36-12.89,11.49-20.14,15.92-8.34,5.1-15.46,12.15-25.38,14.97-5.36,1.52-9.91,5.75-15.01,8.4-4.04,2.1-8.77,3.08-12.46,5.62-4.43,3.05-8.78,6.75-11.77,11.12-1.38,2.02-.28,6.77,1.19,9.47,3.01,5.51,6.89,10.57,10.7,15.6,1.6,2.11,3.94,3.67,5.94,5.48-1.47,2.7-3.42,3.15-6.52,2.5-4.73-.99-9.65-1.09-14.49-1.57-.89-1.08-1.66-2.29-2.69-3.22-2.26-2.04-5.03-3.63-6.92-5.95-8.37-10.28-8.4-21.97,7.84-28.71.76-.31,1.67-.53,2.19-1.1,8.72-9.49,21.78-11.27,32.05-18.1,8.51-5.66,17.84-10.05,26.56-15.41,4.75-2.92,8.82-6.92,13.45-10.04,7.9-5.32,16.12-10.18,24.01-15.52,6.48-4.4,12.72-9.17,18.98-13.88,1.98-1.49,3.69-3.32,5.52-5,.33,0,.66,0,.99,0,1.45-.61,2.9-1.2,4.34-1.82,3.24-1.38,6.47-2.76,9.71-4.15-.65.66-1.3,1.33-1.96,1.99-.68.71-1.36,1.43-2.03,2.14-.29.3-.58.59-.87.89Z"/>
  <path class="cls-22" d="m396.86,460.86c-1.65,7.71-2.12,15.75-7.35,22.37-1.42,1.8-1.52,4.58-2.59,6.72-1.43,2.87-3.42,5.48-4.82,8.36-2.13,4.4-3.8,9.02-5.95,13.41-3.4,6.94-8.22,12.18-16.47,13.4-2.54.38-4.85,2.41-7.39,2.7-7.17.84-13.32-2.32-19.28-5.82,3.21-3.26,6.43-6.51,9.63-9.77,15.89-15.38,31.78-30.75,47.67-46.13,2.18-1.75,4.36-3.5,6.54-5.25Z"/>
  <path class="cls-18" d="m323.83,531.95c8.49,4.77,17.01,9.49,25.45,14.34,1.4.81,2.35,2.46,3.77,3.17,3.02,1.5,6.21,2.65,9.33,3.93-5.48,6.14-10.96,12.28-16.43,18.42-4.5,3.81-9,7.61-14.64,12.38-6.21-13.3-12.21-25.92-17.88-38.68-.54-1.22.49-3.73,1.57-4.96,2.7-3.08,5.85-5.76,8.82-8.6Z"/>
  <path class="cls-14" d="m636.13,400.44c12.29-12.14,24.58-24.29,36.88-36.43.85,1.77,1.33,3.89,2.63,5.22,2.12,2.17,4.78,3.82,7.21,5.68-.31.62-.61,1.24-.92,1.86-11.68,11.4-23.36,22.81-35.03,34.21-6.92,6.36-13.85,12.71-20.77,19.07-1.43-.35-2.86-1.01-4.29-.99-4.11.06-6.94-1.79-8.87-5.27,1.34-1.6,2.68-3.2,4.02-4.8,6.38-6.18,12.77-12.36,19.15-18.54Z"/>
  <path class="cls-2" d="m345.96,571.81c5.48-6.14,10.95-12.28,16.43-18.42,2-1.46,4.26-2.66,5.95-4.42,10.34-10.81,20.54-21.76,30.83-32.62,1.48-1.56,3.15-2.94,4.73-4.4.37,1.54,1.02,3.08,1.05,4.63.12,5.49.02,10.99.01,16.49-1.4,1.48-2.73,3.04-4.22,4.43-8.3,7.76-16.69,15.42-24.94,23.24-3.43,3.25-6.56,6.82-9.83,10.24-.99,1-1.99,2-2.98,3-3.33,3.34-6.66,6.68-9.99,10.02-.67.33-1.34.66-2.01.99-1.68-4.39-3.35-8.79-5.03-13.18Z"/>
  <path class="cls-23" d="m299.31,485.98c.66-.07,1.53.12,1.94-.24,10.86-9.31,21.67-2.05,32.37.36,1.29.29,2.2,3.63,2.7,5.71.58,2.38.51,4.91.72,7.37-.77,1.07-1.53,2.14-2.3,3.21-4.84,4.23-9.67,8.45-14.51,12.68-1.04.68-2.08,1.37-3.12,2.05,0,0-.01.01-.01.01-2.23.65-4.53,1.14-6.67,2.01-1.77.72-3.36,1.9-5.03,2.88-1.98-10.37-3.99-20.74-5.9-31.13-.29-1.6-.14-3.28-.19-4.92Z"/>
  <path class="cls-3" d="m510.02,668.07c1.66-8.03,2.97-16.16,5.18-24.04.77-2.77,3.39-5.36,5.78-7.26,7.57-6.03,15.06-12.3,23.27-17.36,10.46-6.44,17.04-16.89,26.74-24.04,4.51-3.33,8.13-7.86,12.62-11.21,2.35-1.75,5.72-2.11,8.63-3.1-15.39,16.46-30.79,32.92-46.19,49.37-10.64,11.36-21.28,22.7-31.96,34.02-1.24,1.32-2.71,2.42-4.07,3.62Z"/>
  <path class="cls-10" d="m602.01,561.01c-1.83,1.68-3.55,3.51-5.52,5-6.26,4.71-12.5,9.49-18.98,13.88-7.89,5.35-16.1,10.2-24.01,15.52-4.64,3.12-8.71,7.12-13.45,10.04-8.72,5.36-18.05,9.76-26.56,15.41-10.27,6.83-23.33,8.6-32.05,18.1-.52.56-1.43.78-2.19,1.1-16.25,6.74-16.22,18.43-7.84,28.71,1.89,2.32,4.66,3.91,6.92,5.95,1.03.93,1.8,2.14,2.69,3.22-8-1.33-16-2.66-24-3.99-.54-2.75-.99-5.52-1.63-8.25-3.01-12.78,3.87-21.78,14.76-26.11,7-2.79,13.28-6.53,19.54-10.59,4.65-3.02,9.59-5.76,14.7-7.88,12.98-5.38,24.99-12.14,36.14-20.83,8.77-6.84,18.68-12.2,28.01-18.34,4.57-3.01,9.02-6.21,13.43-9.45,2.77-2.04,5.36-4.33,8.04-6.51,0,0,0,0,0,0,4-1.66,8.01-3.33,12.01-4.99Z"/>
  <path class="cls-28" d="m334.75,502.39c.77-1.07,1.53-2.14,2.3-3.21,14.01-13.97,28.01-27.95,42.02-41.93.3-.11.61-.19.92-.26,3.44,3.04,6.89,6.09,10.33,9.13-15.89,15.38-31.79,30.75-47.68,46.13-7.71.79-6.62-5.48-7.89-9.85Z"/>
  <path class="cls-8" d="m655.07,517.09c5.27-5.3,10.55-10.59,15.82-15.9,1.38-1.39,2.73-2.81,4.1-4.22.79,4.79,1.58,9.58,2.37,14.39-6.79,1.34-10.41,6.57-13.57,12.08-3.14,5.47-6.47,10.6-12.42,13.44-.85.41-1.75,1.09-2.2,1.89-3.42,6.06-9.14,9.53-14.67,13.21-5.15,3.42-6.93,3.05-10.51-1.99,4.01-3.99,8.01-7.98,12.02-11.97,2.67-2.96,5.33-5.91,8-8.87.34-.38.68-.75,1.02-1.13v.03c.99-1,1.99-2,3-3.01,0,0,0,0,0,0,1.66-1.67,3.33-3.34,4.99-5,.68-1,1.36-1.99,2.03-2.99l.02.05Z"/>
  <path class="cls-11" d="m713.08,453.01c-9.22-2.55-10.64-4.97-11.23-14.26-.42-6.66-2.22-13.23-3.35-19.85-.28-1.62-.35-3.27-.51-4.91.34-.66.69-1.32,1.03-1.99.61.77,1.26,1.52,1.82,2.33q4.88,6.96,12.11,3.7c1.66,8.03,3.37,16.06,4.97,24.1.93,4.7-.64,8.4-4.84,10.88Z"/>
  <path class="cls-1" d="m636.04,324.07c-2.24-2.17-4.93-4.04-6.63-6.58-3.25-4.86-4.56-10.26-2.5-16.12.6-1.69.73-3.55,1.08-5.33,5.62,4.45,11.34,8.79,16.76,13.47.79.68.2,2.97.25,4.51-2.99,3.35-5.98,6.7-8.97,10.05Z"/>
  <path class="cls-22" d="m656.88,324.86c.37-.65.75-1.29,1.12-1.94,3.11,2.85,6.46,5.48,9.29,8.59,4.43,4.87,8.47,10.09,12.77,15.08,3.07,3.56,3.79,6.79-.75,9.7-7.47-10.48-14.95-20.95-22.42-31.43Z"/>
  <path class="cls-19" d="m712.96,418.03q-7.24,3.26-12.11-3.7c-.56-.81-1.21-1.55-1.82-2.33,2.91-3.02,5.83-6.05,8.74-9.07,1.73,5.03,3.46,10.07,5.2,15.1Z"/>
  <path class="cls-10" d="m636.01,538.01c-4.01,3.99-8.01,7.98-12.02,11.97-1.96,1.34-3.93,2.69-5.9,4.03-.36.34-.72.68-1.08,1.02,0,0,.03,0,.03,0-3.24,1.38-6.47,2.77-9.71,4.15-1.44.61-2.89,1.21-4.34,1.82,1.33-2.33,2.67-4.67,4-7,.33,0,.66,0,.99,0,3.06-.06,6.18,0,7-4,5.27-3.36,11.85-4.68,15.57-10.56.74-1.16,3.58-.99,5.45-1.43Z"/>
  <path class="cls-22" d="m305.4,522.03c1.67-.98,3.26-2.16,5.03-2.88,2.14-.87,4.44-1.36,6.67-2.01-3.26,3.11-6.52,6.21-10.66,10.15-.57-2.85-.81-4.05-1.05-5.26Z"/>
  <path class="cls-22" d="m317.12,517.12c1.04-.68,2.08-1.37,3.12-2.05-1.04.68-2.08,1.37-3.12,2.05Z"/>
  <path class="cls-22" d="m300.78,440.87c-.22.71-.43,1.41-.65,2.12.22-.71.43-1.41.65-2.12Z"/>
  <path class="cls-11" d="m613.06,559.17c.68-.71,1.36-1.43,2.03-2.14-.68.71-1.36,1.43-2.03,2.14Z"/>
  <path class="cls-3" d="m507.03,671.06c.71-.67,1.41-1.35,2.12-2.02-.71.67-1.41,1.35-2.12,2.02Z"/>
  <path class="cls-21" d="m357.34,636.89c-.38-.34-.75-.67-1.13-1.01.38.34.75.67,1.13,1.01Z"/>
  <path class="cls-3" d="m506.02,672.17c.34-.39.69-.77,1.03-1.16-.34.39-.69.77-1.03,1.16Z"/>
  <path class="cls-12" d="m617.01,555.04c.36-.34.72-.68,1.08-1.02-.36.34-.72.68-1.08,1.02Z"/>
  <path class="cls-8" d="m678.89,492.97c.37-.34.73-.69,1.1-1.03-.37.34-.73.69-1.1,1.03Z"/>
  <path class="cls-4" d="m528.99,261.19c1.01.99,1.84,2.32,3.05,2.91,5.58,2.74,11.33,5.13,16.88,7.94,3.07,1.55,2.71,3.72-.23,5.05-9.78,4.42-19.61,8.7-29.47,12.95-1.34.58-2.88.88-4.34.91-4.74.12-9.53-.38-14.22.15-7.82.89-15.57,2.44-23.37,3.63-5.53.84-11.13,1.29-16.59,2.43-3.16.66-6.37,1.91-9.11,3.62-6.07,3.8-12.18,1.02-18.32.93-5.69-.08-11.41.73-17.1,1.25-1.62.15-3.2.97-4.8.98-3.37,0-7.45,1.07-9.12-3.15-1.43-3.62,2.08-11.45,5.15-13.55,1.21-.83,1.77-2.6,2.63-3.95.88-.38,1.76-.77,2.64-1.15,3.44,2.8,12.36-1.3,14.19-6.52,12.97-3.82,25.8-8.17,38.93-11.33,18.87-4.55,38.19-4.86,57.51-4.24,1.91.06,3.8.74,5.7,1.13Z"/>
  <path class="cls-14" d="m619.09,295.23c-.71.92-1.41,1.84-2.12,2.76-1.93,1.7-3.87,3.4-5.8,5.1-2.57.2-5.16.73-7.69.51-4.47-.38-4.56-4.95-6.62-7.65,2.73-3.42,5.46-6.84,8.19-10.26,4.66-.22,8.01,1.69,10.32,5.82.83,1.47,2.45,2.5,3.72,3.72Z"/>
  <path class="cls-20" d="m426.85,275.62c-1.83,5.21-10.75,9.32-14.19,6.52,4.73-2.17,9.46-4.35,14.19-6.52Z"/>
  <path class="cls-17" d="m404.96,533.06c.01-5.5.11-10.99-.01-16.49-.03-1.55-.68-3.09-1.05-4.63.32-8.71.78-17.42.92-26.14.17-10.58.07-21.17.09-31.75.02-.68.05-1.35.07-2.03,0-3.8.19-7.61-.05-11.4-.15-2.31-.94-4.57-1.44-6.86.6-3.92,1.2-7.84,1.8-11.76,5.61,1.47,10.63,7.55,10.7,13.04.04,3.29-.22,6.61.14,9.87.12,1.11,1.7,2.06,2.61,3.08,0,.67,0,1.33,0,2-1.56,1.83-4.3,3.58-4.44,5.51-.35,5.04.23,10.19.94,15.23.17,1.23,2.28,2.18,3.5,3.26l.38,4.02c.02,2.98.03,5.97.05,8.95-.02,5.34-.03,10.68-.05,16.02l-.96,64c-1.83,21.6,6.89,37.33,24.83,43.02,1.67,4.66,3.33,9.33,5,13.99-4-.66-8.01-1.33-12.01-1.99-4.66-2.34-9.33-4.67-13.99-7.01-8.81-4.93-12.97-13.36-14.69-22.5-1.75-9.32-1.63-18.99-2.33-28.51,0-10.31-.01-20.62-.02-30.94Z"/>
  <path class="cls-14" d="m422,615.01c4.66,2.34,9.33,4.67,13.99,7.01.96,2.25,1.54,6.17,2.93,6.47,6.32,1.4,12.85,2.24,19.33,2.39,4.71.11,9.66-.58,14.14-2.02,4.89-1.58,10.55-3.4,13.76-7,5.52-6.17,12.97-8.84,19.34-13.34,5.7-4.02,12.01-7.22,18.17-10.56,4.55-2.47,7.27-7.02,13.11-8.47,7.02-1.74,13.78-5.69,19.82-9.88,7.38-5.12,13.52-12.06,22.6-14.56.47-.13.95-.33,1.33-.63,5.18-3.97,10.09-8.35,15.57-11.86,8.11-5.19,16.88-9.35,24.84-14.72,5.29-3.57,10.14-8.22,9.09-15.82,3.64-2.68,7.28-5.35,10.93-8.03,1.01-.68,2.02-1.35,3.03-2.03h-.01c4.14,1.04,5.18,4.05,4.89,7.82-.14,1.76-.54,3.5-.82,5.25,0,0,0,0,0,0-1,1-2.01,2-3.01,3.01,0,0,.01-.03.01-.03-.34.38-.68.75-1.02,1.13-2.67,2.96-5.33,5.91-8,8.87-1.87.44-4.71.27-5.45,1.43-3.73,5.88-10.3,7.2-15.57,10.56-2.33,1.33-4.67,2.66-7,4-.33,0-.66,0-.99,0-5.04,2.88-10.14,5.68-15.09,8.72-.95.59-1.29,2.16-1.92,3.28,0,0,0,0,0,0-5.43,1.14-10.59,2.26-14.77,6.8-3.16,3.43-7.83,5.45-11.75,8.21-3.89,2.73-7.49,5.91-11.55,8.35-12.91,7.73-25.97,15.21-38.96,22.79-10.48,6.11-20.92,12.31-31.46,18.32-2.41,1.37-5.1,2.33-7.77,3.14-8.83,2.69-17.6,5.68-26.59,7.68-7.28,1.62-18.5-5.1-21.12-12.06-1.73-4.59-2.7-9.46-4.02-14.21Z"/>
  <path class="cls-10" d="m404.96,533.06c0,10.31.01,20.62.02,30.94-.46.16-1.23.19-1.35.49-3.23,8.25-9.31,13.61-17.6,17.23-.61-.65-1.32-1.48-2.11-2.24-2.63-2.54-4.97-3.17-7.98-.05-4.76,4.94-6.8,4.74-10.32.82-3.79,1.87-7.23,3.63-10.76,5.2-.34.15-1.22-.94-1.85-1.45,3.33-3.34,6.66-6.68,9.99-10.02.99.99,1.99,1.99,2.98,2.98.4-.24.8-.47,1.2-.71-.4-1.76-.8-3.52-1.2-5.28,3.27-3.42,6.4-6.99,9.83-10.24,8.24-7.82,16.64-15.48,24.94-23.24,1.49-1.39,2.82-2.95,4.22-4.43Z"/>
  <path class="cls-2" d="m415.08,349.02c.02-.33.01-.67-.01-1,12.22-14.19,28.03-17.76,45.81-15.54,4.68,1.61,9.35,3.23,14.03,4.84,9.2,5.87,18.4,11.75,27.59,17.63,7.77,4.97,15.53,9.94,23.29,14.91,3.73,2.38,7.46,4.76,11.2,7.14-3.32,1.77-6.64,3.55-11.03,5.9,2.92,1.44,4.48,2.26,6.09,2.98,4.81,2.15,8.61,6.94,8.4,10.67-6.29-3.84-12.64-7.59-18.86-11.54-10.4-6.6-20.65-13.43-31.1-19.95-5.98-3.73-12.42-6.76-18.33-10.59-15.24-9.89-39.04-10.29-50.03,8.57.53-2.86,1.06-5.72,1.76-9.55-2.24-1.14-5.53-2.81-8.81-4.47Z"/>
  <path class="cls-7" d="m474.92,337.33c-4.68-1.62-9.35-3.23-14.03-4.84,2.5-2.06,4.7-4.9,7.57-6.05,11.83-4.73,23.86-7.17,35.9-.32.96.55,2.2.81,3.33.85,10.11.39,20.23.65,30.35,1.07,4.63.19,9.34.19,13.84,1.12,5.13,1.06,3.59,5.31,3.13,8.81-4.9,5.2-9.8,10.41-14.7,15.61-3.8-7.81-10.7-5.48-16.98-5.2-1.75.08-3.82.6-5.21-.12-4.66-2.4-8.88-5.74-13.65-7.85-5.83-2.57-11.92-4.89-18.13-6.11-3.73-.73-8.5-1.24-11.41,3.03Z"/>
  <path class="cls-10" d="m596.86,295.95c2.06,2.7,2.14,7.26,6.62,7.65,2.53.22,5.13-.32,7.69-.51-8.3,8.16-16.64,16.27-24.88,24.49-7.77,7.75-15.43,15.61-23.13,23.43-.85-.76-2.27-1.41-2.43-2.29-.37-2.01-.12-4.14-.12-6.22-.51.22-1.01.43-1.52.65-1.03-1.7-2.07-3.41-3.1-5.11,13.62-14.03,27.24-28.05,40.86-42.08Z"/>
  <path class="cls-19" d="m556,338.03c1.03,1.7,2.07,3.41,3.1,5.11.51-.22,1.01-.43,1.52-.65,0,2.08-.25,4.2.12,6.22.16.88,1.58,1.53,2.43,2.29-2.68,2.99-5.35,5.99-8.03,8.98-.68,1.01-1.35,2.01-2.03,3.02-2.71,2.65-5.42,5.31-8.13,7.96-2.23,2.02-4.46,4.04-6.69,6.07l-1.28-.03c-3.73-2.38-7.46-4.76-11.2-7.14,4.83-5.43,9.66-10.86,14.5-16.29,4.9-5.2,9.8-10.41,14.7-15.61.33.02.67.05,1,.07Z"/>
  <path class="cls-30" d="m415.08,349.02c3.28,1.67,6.57,3.33,8.81,4.47-.71,3.83-1.24,6.69-1.76,9.55-1.13,3.3-2.25,6.61-3.38,9.91-.26.68-.53,1.36-.79,2.05.34,8.33.67,16.66,1.01,24.99.03,2.67.06,5.35.09,8.02,0,3,.02,5.99.03,8.99.01,3,.03,6.01.04,9.01.02,4,.04,8,.06,12-.15,3.33-.31,6.67-.46,10-.91-1.02-2.49-1.97-2.61-3.08-.35-3.26-.09-6.57-.14-9.87-.07-5.49-5.09-11.58-10.7-13.04-.11-11.21-.2-22.42-.34-33.63-.02-1.8-.27-3.6-.42-5.4-.18-9.4,2.14-18.28,5.57-26.93,1.66-2.34,3.32-4.68,4.98-7.02Z"/>
  <path class="cls-14" d="m403.49,433.77c.5,2.28,1.3,4.55,1.44,6.86.24,3.79.06,7.6.05,11.4-.39.52-.78,1.05-1.17,1.57-1.29,1.39-2.58,2.78-3.87,4.18-1,1.05-2.01,2.11-3.01,3.16,0,0-.07-.07-.07-.07-2.18,1.75-4.36,3.5-6.54,5.25-3.44-3.04-6.89-6.08-10.33-9.13,7.83-7.74,15.67-15.48,23.5-23.22Z"/>
  <path class="cls-8" d="m640.95,513.99c-3.64,2.68-7.28,5.35-10.93,8.03-6.11,5.08-14.2,7.73-18.35,15.29-.57,1.04-2.9,1.01-4.29,1.72-1.57.8-3.05,1.81-4.46,2.86-1.27.95-2.24,2.4-3.61,3.08-5.38,2.68-11.07,4.8-16.27,7.78-6.42,3.67-12.42,8.06-18.68,12.02-7.51,4.76-15.09,9.4-22.66,14.07-7.95,4.91-15.77,10.05-23.91,14.63-10.88,6.12-22.06,11.7-33.02,17.66-9.83,5.35-19.03,12.11-30.77,12.85-.26-.52-.51-1.04-.77-1.56-.41.52-.82,1.04-1.23,1.57-1.33,0-2.67,0-4,0-1.67-4.66-3.33-9.33-5-13.99,9.56,2.58,18.18-.46,26.29-4.97,9.64-5.37,19.02-11.23,28.43-17.01,18.55-11.38,37.05-22.85,55.57-34.29,7.12-4.37,14.29-8.64,21.34-13.12,16.86-10.71,33.66-21.52,50.48-32.3,4.26-4.28,9.48-7.97,12.58-12.98,5.17-8.37,5.01-17.91,2.53-27.35.55-.84,1.11-1.68,1.66-2.52-1.09-.48-2.18-.96-3.27-1.44-.46-.61-.92-1.22-1.38-1.83,3.49-1.3,3.41-3.32.92-5.49-1.59-1.39-3.51-2.4-5.24-3.63-3.81-2.73-8.24-4.95-11.16-8.43-1.97-2.35-2.95-4.82-6.55-4.91-1.03-.03-3.01-2.07-2.83-2.54.58-1.53,1.71-3.2,3.09-3.96,1.09-.6,2.87.18,4.34.15,1.74-.03,3.47-.26,5.21-.41,11.91,6.76,22.79,14.54,27.96,28.02.77,4.27,1.53,8.55,2.3,12.83,0,3.45.01,6.9.02,10.35-.07,2.26-.15,4.52-.22,6.78-3.7,7-7.4,14-11.1,21,0,0,.01,0,.01,0-1.01.68-2.02,1.35-3.03,2.03Z"/>
  <path class="cls-30" d="m625.01,432.99c-1.73.14-3.47.38-5.21.41-1.47.02-3.26-.75-4.34-.15-1.39.76-2.52,2.43-3.09,3.96-.18.47,1.8,2.51,2.83,2.54,3.6.09,4.58,2.57,6.55,4.91,2.92,3.48,7.35,5.7,11.16,8.43,1.73,1.24,3.65,2.24,5.24,3.63,2.48,2.17,2.56,4.2-.92,5.49-2.62-2.7-4.89-5.91-7.94-7.99-7.44-5.08-15.32-9.5-22.88-14.42-18.85-12.26-37.62-24.65-56.42-36.99-.35-.28-.7-.55-1.05-.83-.65-.38-1.3-.76-1.95-1.13-.35-.28-.7-.56-1.05-.84-.64-.44-1.28-.89-1.92-1.33,0-2.64-1.31-3.09-3.49-2.1l-.07-.04c.22-3.73-3.58-8.52-8.4-10.67-1.61-.72-3.17-1.54-6.09-2.98,4.39-2.35,7.71-4.12,11.03-5.9.43,0,.85.02,1.28.03,1.26,1.32,2.3,2.98,3.8,3.92,7.22,4.51,14.72,8.59,21.78,13.33,2.94,1.98,4.9,1.97,7.16-.42-.14,4.32,1.98,6.87,6.07,8.11,1.11.34,1.99,1.41,2.97,2.14.07.32.03.82.23.94,10.08,6.24,20.16,12.47,30.29,18.62.59.36,1.57.09,2.37.12,1.93,3.48,4.76,5.33,8.87,5.27,1.42-.02,2.86.64,4.29.99-.37.98-.74,1.97-1.11,2.95Z"/>
  <path class="cls-15" d="m646.89,410.98c11.68-11.4,23.36-22.8,35.03-34.21,1.69,4.07,3.32,8.17,5.1,12.2,2.03,4.6-.5,8.37-3.29,10.9-3.68,3.33-8.35,5.74-12.9,7.89-3.35,1.58-7.15,2.56-10.84,3.01-4.31.52-8.73.18-13.1.21Z"/>
  <path class="cls-1" d="m636.13,400.44c-6.38,6.18-12.77,12.36-19.15,18.55.13-1.05.21-2.11.41-3.15.22-1.13,1.16-2.64.73-3.31-3.09-4.83-6.2-9.72-12.7-10.57-6.81-.89-13.59-1.94-20.38-2.92,2.65-2.7,5.3-5.4,7.95-8.09.58-.4,1.17-.8,1.75-1.2,0,0-.02-.12-.02-.12,7.71,1.61,15.27,1.8,23.09-.16,4.5-1.13,9.52-.44,14.28-.1,1.04.07,2.42,2,2.81,3.32.73,2.49.86,5.16,1.24,7.76Z"/>
  <path class="cls-22" d="m396.93,460.94c1-1.05,2.01-2.11,3.01-3.16-1,1.05-2.01,2.11-3.01,3.16Z"/>
  <path class="cls-11" d="m403.81,453.6c.39-.52.78-1.05,1.17-1.57-.02.68-.05,1.35-.07,2.03-.37-.15-.73-.3-1.1-.46Z"/>
  <path class="cls-10" d="m643.96,511.97c3.7-7,7.4-14,11.1-21,1.28,1.04,3.3,1.84,3.72,3.15,2.25,7.09,2.09,14.01-2.63,20.29-.56.74-.72,1.78-1.07,2.68,0,0-.02-.05-.02-.05-.68,1-1.36,1.99-2.03,2.99-1.66,1.67-3.33,3.34-4.99,5,.28-1.75.68-3.49.82-5.25.3-3.76-.75-6.78-4.89-7.81Z"/>
  <path class="cls-19" d="m655.28,484.19c0-3.45-.01-6.9-.02-10.35,3.84,4.28,3.84,8.37.02,10.35Z"/>
  <path class="cls-1" d="m544.97,370.96c2.71-2.65,5.42-5.31,8.13-7.96,1.68.89,3.75,1.42,4.97,2.73,2.6,2.79,4.87,2.27,7.95.77,5.11-2.49,10.51-4.38,15.8-6.51.75-.3,1.6-.4,2.32-.76,5.72-2.83,11.48.23,12.87,6.87-4.62,5.1-9.25,10.21-13.87,15.31.05-2.71-.97-4.21-3.95-4.61-4.88-.66-9.69-1.83-14.55-2.65-.9-.15-1.95.21-2.87.51-6.35,2.12-11.64-.46-16.79-3.7Z"/>
  <path class="cls-25" d="m544.97,370.96c5.15,3.25,10.44,5.83,16.79,3.7.92-.31,1.97-.67,2.87-.51,4.86.82,9.67,1.99,14.55,2.65,2.99.4,4,1.9,3.95,4.61-4.04,4.15-8.07,8.29-12.11,12.44-2.26,2.39-4.22,2.39-7.16.42-7.06-4.74-14.56-8.82-21.78-13.33-1.5-.94-2.55-2.59-3.8-3.92,2.23-2.02,4.46-4.04,6.7-6.07Z"/>
  <path class="cls-25" d="m585.03,399.04c6.79.98,13.58,2.03,20.38,2.92,6.5.85,9.61,5.74,12.7,10.57.43.67-.51,2.17-.73,3.31-.2,1.04-.28,2.1-.41,3.15-1.34,1.6-2.68,3.2-4.02,4.8-.8-.02-1.78.25-2.37-.12-10.13-6.15-20.22-12.38-30.29-18.62-.19-.12-.16-.62-.23-.94,1.65-1.69,3.31-3.38,4.96-5.07Z"/>
  <path class="cls-7" d="m594.73,389.74c-.58.4-1.17.8-1.75,1.2.58-.4,1.17-.8,1.75-1.2Z"/>
  <path class="cls-13" d="m555.13,359.98c2.68-2.99,5.35-5.99,8.03-8.98,7.71-7.81,15.36-15.68,23.13-23.43,8.24-8.22,16.58-16.33,24.88-24.49,1.93-1.7,3.87-3.4,5.8-5.1.28,2.72,1.27,5.59.71,8.12-1.99,9.02-5.73,17.13-13.47,22.94-2.61,1.97-4.38,5.03-6.94,7.1-7.26,5.89-14.28,12.3-22.27,17.02-5.91,3.48-13.19,4.63-19.87,6.81Z"/>
  <path class="cls-19" d="m590,566c.62-1.12.97-2.69,1.92-3.28,4.94-3.05,10.04-5.84,15.09-8.72-1.33,2.33-2.67,4.67-4,7-.33,0-.66,0-.99,0-4,1.66-8.01,3.33-12.01,4.99Z"/>
  <path class="cls-19" d="m365.98,570.98c.4,1.76.8,3.52,1.2,5.28-.4.24-.8.47-1.2.71-.99-.99-1.99-1.99-2.98-2.98.99-1,1.99-2,2.98-3Z"/>
  <path class="cls-3" d="m653.02,520.02c.68-1,1.36-1.99,2.03-2.99-.68,1-1.36,1.99-2.03,2.99Z"/>
  <path class="cls-10" d="m645.02,528.03c1-1,2.01-2,3.01-3.01-1,1-2.01,2-3.01,3.01Z"/>
  <path class="cls-10" d="m644.01,529.14c.34-.38.68-.75,1.02-1.13-.34.38-.68.75-1.02,1.13Z"/>
  <path class="cls-19" d="m607.99,554c2.33-1.33,4.67-2.66,7-4-.82,3.99-3.94,3.94-7,4Z"/>
  <path class="cls-26" d="m544.02,398.69c.64.44,1.28.89,1.92,1.33.35.28.7.56,1.05.84.65.38,1.3.76,1.95,1.13.35.28.7.55,1.05.83,18.8,12.34,37.57,24.72,56.42,36.99,7.56,4.91,15.44,9.34,22.88,14.42,3.05,2.08,5.32,5.29,7.94,7.99.46.61.92,1.22,1.39,1.83.53,1.32,1.07,2.64,1.6,3.95,2.48,9.43,2.64,18.98-2.53,27.35-3.09,5-8.31,8.69-12.58,12.98-2.62-3.96-1.83-7.25.99-11.04,1.64-2.21,2.6-6.04,1.9-8.6-.82-2.98-2.68-5.47-1.3-8.85.21-.52-1.63-1.87-2.52-2.84.37-6.03-3-9.79-7.69-12.8-14.92-9.57-29.79-19.21-44.74-28.74-12.5-7.97-25.08-15.83-37.63-23.73-1.7-.93-3.39-1.87-5.09-2.8-3.1-2.14-6.2-4.28-9.29-6.42-13.77-8.8-27.51-17.65-41.33-26.37-5.12-3.23-10.15-6.93-15.75-9.04-11.37-4.28-20.42-2.73-24.67,8.27-1.27,3.28-1.3,7.17-1.34,10.78-.25,24.29-.34,48.58-.49,72.87.04,4.74.08,9.49.13,14.23.02.94.03,1.88.05,2.81-.15,8.98-.3,17.96-.45,26.94-5.25,3.76-10.51,1.62-15.78.04-.3-.09-.65-.03-.98-.05.02-5.34.03-10.68.05-16.02.27-2.99.54-5.99.81-8.98-.26-5-.52-10-.78-14.99,0-4,0-8-.01-11.99,0-4.34,0-8.67,0-13.01-.02-4-.04-8-.06-12-.01-3-.03-6.01-.04-9.01,0-3-.02-5.99-.03-8.99-.03-2.67-.06-5.35-.09-8.02-.34-8.33-.67-16.66-1.01-24.99.26-.68.53-1.36.79-2.05,1.13-3.3,2.25-6.61,3.38-9.91,10.99-18.86,34.79-18.47,50.03-8.57,5.91,3.84,12.34,6.86,18.33,10.59,10.45,6.52,20.7,13.35,31.1,19.95,6.22,3.95,12.57,7.7,18.86,11.54,0,0,.07.04.07.04,1.16.7,2.33,1.4,3.49,2.1Z"/>
  <path class="cls-9" d="m553.29,553.74c-18.52,11.43-37.02,22.9-55.57,34.29-9.41,5.78-18.78,11.64-28.43,17.01-8.11,4.51-16.73,7.56-26.29,4.97-17.95-5.69-26.67-21.42-24.83-43.02.45-.19,1.23-.3,1.3-.58,1.56-6.49,3.64-12.93,4.33-19.52.5-4.75,3.6-6.89,6.6-9.13.66-.49,3.59,2.08,5.47,3.23.13,13,.27,26,.4,39-.02.35-.04.69-.06,1.04.24.39.48.78.72,1.18,3.93,12.21,11.9,15.58,23.1,9.76,1.03-.53,2.01-1.17,3-1.78,21.29-13.07,42.57-26.15,63.86-39.23,5.54,2.86,10.88,3.58,15.51-1.68,1.35-1.53,2.48-3.25,4.18-5.51,2.34,3.47,4.52,6.72,6.71,9.96Z"/>
  <path class="cls-2" d="m448,624c1.33,0,2.67,0,4,0,.67,0,1.33,0,2,0,11.74-.74,20.95-7.5,30.77-12.85,10.96-5.97,22.14-11.55,33.02-17.66,8.14-4.57,15.96-9.72,23.91-14.63,7.56-4.67,15.15-9.31,22.66-14.07,6.26-3.96,12.26-8.35,18.68-12.02,5.2-2.98,10.89-5.1,16.27-7.78,1.37-.68,2.34-2.14,3.61-3.08,1.41-1.06,2.89-2.06,4.46-2.86,1.39-.71,3.72-.68,4.29-1.72,4.14-7.56,12.24-10.22,18.35-15.29,1.05,7.6-3.8,12.25-9.09,15.82-7.97,5.37-16.74,9.54-24.84,14.72-5.48,3.5-10.39,7.89-15.57,11.86-.38.29-.86.5-1.33.63-9.08,2.49-15.22,9.44-22.6,14.56-6.04,4.19-12.8,8.14-19.82,9.88-5.84,1.44-8.55,6-13.11,8.47-6.16,3.34-12.47,6.53-18.17,10.56-6.37,4.5-13.83,7.17-19.34,13.34-3.22,3.6-8.87,5.42-13.76,7-4.48,1.45-9.42,2.13-14.14,2.02-6.48-.15-13.01-.99-19.33-2.39-1.39-.31-1.97-4.22-2.93-6.47,4,.66,8.01,1.33,12.01,1.99Z"/>
  <path class="cls-27" d="m435.87,540.99c-1.88-1.16-4.82-3.72-5.47-3.23-3,2.24-6.1,4.37-6.6,9.13-.69,6.59-2.77,13.03-4.33,19.52-.07.28-.85.39-1.3.58l.96-64c.33.01.67-.05.98.05,5.27,1.58,10.53,3.72,15.78-.04,0,12.67-.01,25.33-.02,38Z"/>
  <path class="cls-30" d="m419.2,451c0,4,0,8,.01,11.99-.15,3.67-.31,7.33-.46,11-1.22-1.08-3.33-2.03-3.5-3.26-.71-5.04-1.29-10.19-.94-15.23.13-1.93,2.88-3.68,4.44-5.51.15.33.3.67.46,1Z"/>
  <path class="cls-29" d="m418.75,474c.15-3.67.31-7.33.46-11,.26,5,.52,10,.78,14.99-.29,0-.57.02-.86.03-.13-1.34-.26-2.68-.38-4.02Z"/>
  <path class="cls-29" d="m419.2,451c-.15-.33-.3-.67-.46-1,0-.67,0-1.33,0-2,.15-3.33.31-6.67.46-10,0,4.34,0,8.67,0,13.01Z"/>
  <path class="cls-27" d="m419.13,478.02c.29,0,.57-.02.86-.03-.27,2.99-.54,5.99-.81,8.98-.02-2.98-.03-5.97-.05-8.95Z"/>
  <path class="cls-10" d="m640.95,513.99c1.01-.68,2.02-1.35,3.03-2.03-1.01.68-2.02,1.35-3.03,2.03Z"/>
  <path class="cls-1" d="m540.3,353.57c-4.83,5.43-9.66,10.86-14.5,16.29-7.76-4.97-15.53-9.94-23.29-14.91-9.2-5.88-18.39-11.75-27.59-17.63,2.91-4.27,7.68-3.76,11.41-3.03,6.21,1.22,12.31,3.54,18.13,6.11,4.77,2.11,8.99,5.44,13.65,7.85,1.39.72,3.46.19,5.21.12,6.28-.28,13.18-2.61,16.98,5.2Z"/>
  <path class="cls-29" d="m419.09,416.99c.01,3,.03,6.01.04,9.01-.01-3-.03-6.01-.04-9.01Z"/>
  <path class="cls-29" d="m418.97,399.98c.03,2.67.06,5.35.09,8.02-.03-2.67-.06-5.35-.09-8.02Z"/>
  <path class="cls-10" d="m418.75,372.95c-.26.68-.53,1.36-.79,2.05.26-.68.53-1.36.79-2.05Z"/>
  <path class="cls-27" d="m553.29,553.74c-2.19-3.25-4.37-6.49-6.71-9.96-1.7,2.26-2.83,3.98-4.18,5.51-4.63,5.26-9.97,4.54-15.51,1.68,1.93-1.17,3.89-2.3,5.8-3.5,13.4-8.39,26.77-16.83,40.2-25.18,13.58-8.45,27.15-16.92,40.85-25.17,7.72-4.65,11.67-10.97,10.44-20.12.89.97,2.73,2.32,2.52,2.84-1.38,3.38.48,5.87,1.3,8.85.7,2.56-.25,6.39-1.9,8.6-2.81,3.79-3.61,7.08-.99,11.04-16.82,10.77-33.62,21.58-50.48,32.3-7.05,4.48-14.22,8.75-21.34,13.12Z"/>
  <path class="cls-30" d="m640.21,468c-.53-1.32-1.07-2.64-1.6-3.95,1.09.48,2.18.96,3.26,1.44-.55.84-1.11,1.68-1.66,2.52Z"/>
  <path class="cls-17" d="m454,624c-.67,0-1.33,0-2,0,.41-.52.82-1.04,1.23-1.57.26.52.51,1.04.77,1.56Z"/>
  <path class="cls-2" d="m544.02,398.69c-1.16-.7-2.33-1.4-3.49-2.1,2.18-.99,3.5-.54,3.49,2.1Z"/>
  <path class="cls-2" d="m546.99,400.86c-.35-.28-.7-.56-1.05-.84.35.28.7.56,1.05.84Z"/>
  <path class="cls-2" d="m549.99,402.83c-.35-.28-.7-.55-1.05-.83.35.28.7.55,1.05.83Z"/>
  <path class="cls-28" d="m624.17,476.99c1.23,9.15-2.73,15.47-10.44,20.12-13.7,8.25-27.27,16.72-40.85,25.17-13.43,8.35-26.79,16.79-40.2,25.18-1.91,1.2-3.87,2.34-5.8,3.5-21.29,13.08-42.57,26.15-63.86,39.23-.99.61-1.97,1.24-3,1.78-11.2,5.82-19.17,2.44-23.1-9.76-.24-.39-.48-.78-.72-1.18.02-.35.04-.69.06-1.04.91-1.82,1.82-3.63,2.74-5.45q4.68,5.59,12.08,2.54c.45-.18.95-.24,1.43-.35,2.16-.56,4.33-1.11,6.49-1.67,4.03-1.91,8.25-3.51,12.04-5.8,10.06-6.08,19.93-12.49,29.9-18.73,10.38-6.5,20.79-12.96,31.18-19.44,8.34-5.2,16.68-10.39,25.03-15.59,16.33-9.87,32.67-19.72,48.96-29.65,1.53-.93,2.9-2.25,4.09-3.61,2.68-3.06,2.81-5.96-1.08-8.2-4.31-2.48-8.65-4.91-12.97-7.35-18.77-12.25-37.51-24.54-56.34-36.7-4.57-2.95-9.43-5.47-14.15-8.19-3.56-2.58-7.13-5.15-10.69-7.73-.14-1.31-.42-2.63-.39-3.94.08-3.61.81-6.86,5.15-7.64,3.1,2.14,6.2,4.28,9.29,6.42-.14,4.28,1.41,5.48,5.09,2.8,12.54,7.91,25.12,15.76,37.63,23.73,14.94,9.53,29.82,19.17,44.74,28.74,4.69,3.01,8.07,6.77,7.69,12.8Z"/>
  <path class="cls-2" d="m519.74,402.49c-4.33.78-5.06,4.03-5.15,7.64-.03,1.31.25,2.63.39,3.94-3.63-2.1-7.26-4.21-10.89-6.31-2.33-1.33-4.66-2.66-6.99-3.99-11.47-7.58-22.82-15.36-34.45-22.68-7.92-4.98-14.8-1.02-14.62,8.19.19,9.24.75,18.47,1.15,27.7.06,5,.12,10,.18,14.99.07,5.99.14,11.99.21,17.98-.13,3.34-.26,6.68-.39,10.02-3.16,1.73-3.53,3.41.09,5.02.07,2.67.15,5.35.22,8.02-4.39,1.01-8.77,2.03-13.16,3.04-.02-.94-.03-1.88-.05-2.81,2.53-3.53,2.46-11.39-.13-14.23.14-24.29.24-48.58.49-72.87.04-3.62.07-7.5,1.34-10.78,4.25-11,13.3-12.56,24.67-8.27,5.59,2.11,10.62,5.81,15.75,9.04,13.82,8.72,27.56,17.57,41.33,26.37Z"/>
  <path class="cls-17" d="m436.34,476.05c4.39-1.01,8.77-2.03,13.16-3.04.14,1.67.29,3.34.43,5.02-.07,12.32-.15,24.63-.22,36.95-.15,10.32-.3,20.64-.45,30.97-.05,7.82-.38,15.66,0,23.46.12,2.49,2.12,4.89,3.26,7.33-.48.11-.98.16-1.43.35q-7.41,3.05-12.08-2.54c-.91,1.82-1.83,3.63-2.74,5.45-.13-13-.27-26-.4-39,0-12.67.01-25.33.02-38,.15-8.98.3-17.96.45-26.94Z"/>
  <path class="cls-17" d="m436.16,459.01c2.59,2.84,2.66,10.7.13,14.23-.04-4.74-.09-9.49-.13-14.23Z"/>
  <path class="cls-2" d="m534.12,411.71c-3.68,2.68-5.23,1.48-5.09-2.8,1.7.93,3.39,1.87,5.09,2.8Z"/>
  <path class="cls-17" d="m436.21,581.03c.24.39.48.78.72,1.18-.24-.39-.48-.78-.72-1.18Z"/>
  <path class="cls-25" d="m449.26,545.94c.15-10.32.3-20.64.45-30.97,4.34.7,4.51,3.92,4.06,7.18-.9,6.52.46,9.19,5.81,10.57,6.89,1.77,7.75,1.38,10.01-6.15.72-2.39.45-5.08.55-7.64.11-2.81-.09-5.66.24-8.44,1.31-10.97,5.37-21.06,10.38-30.78.92-1.79,2.69-3.14,4.06-4.7-.13,6.61-.26,13.22-.4,19.84-1.13.99-2.66,1.78-3.3,3.02-1.12,2.18-1.63,4.67-2.52,6.98-2.99,7.72-3.13,15.51-.59,23.33.24.74,1.31,1.2,2,1.79.62,1.32.96,2.94,1.93,3.91,1.87,1.87,4.33,4.97,6.14,4.71,3.45-.49,8.36.5,9.92-4.6.67-.31,1.34-.61,2-.92,1.01-.67,2.03-1.35,3.04-2.02.99-.69,1.97-1.38,2.96-2.07,4.33-2.67,8.66-5.33,12.99-8,6.02-4.3,12.04-8.61,18.07-12.91,2.03-1.97,4.06-3.94,6.09-5.91,0,0,.11,0,.11,0,1.91-.75,3.82-1.49,5.72-2.24.35.06.7.12,1.05.18-.31,9.94-3.72,14.76-12.73,17.98-4.52,1.62-7.17,8.26-5.17,12.98-10.39,6.48-20.8,12.94-31.18,19.44-9.97,6.24-19.84,12.65-29.9,18.73-3.8,2.29-8.02,3.89-12.04,5.8-.28-.57-.66-1.65-.81-1.62-4.68.94-6.28-1.44-6.43-5.66-.2-5.75-.4-11.51-.84-17.25-.12-1.56-1.09-3.06-1.67-4.59Z"/>
  <path class="cls-5" d="m525.67,421.79c4.72,2.72,9.58,5.24,14.15,8.19,18.83,12.16,37.57,24.46,56.34,36.7-1.27,1.58-3.13,2.98-3.69,4.79-.95,3.05-2.76,3.74-5.55,3.56-1.97-.13-3.96.01-5.95.03-4.01,0-8.02-.02-12.03-.03-6.34-4.99-12.48-10.28-19.07-14.91-10.8-7.57-21.91-14.72-32.88-22.05.54-.34,1.04-.87,1.62-.98q5.37-.97,2.28-5.8c-3.19-4.96-1.58-10.33,4.79-9.51Z"/>
  <path class="cls-16" d="m580.97,475.06c1.98-.02,3.97-.16,5.95-.03,2.79.18,4.59-.51,5.55-3.56.56-1.8,2.42-3.2,3.69-4.79,4.33,2.45,8.67,4.87,12.97,7.35,3.88,2.24,3.76,5.14,1.08,8.2-1.19,1.36-2.56,2.67-4.09,3.61-16.29,9.93-32.63,19.78-48.96,29.65,1.22-3.36,2.41-6.72,3.66-10.06.98-2.61,1.46-5.72,3.2-7.67,3.92-4.39,8.45-8.25,12.82-12.23,3.12-2.85,6.42-5.53,4.13-10.48Z"/>
  <path class="cls-4" d="m525.67,421.79c-6.37-.82-7.98,4.55-4.79,9.51q3.1,4.83-2.28,5.8c-.58.1-1.08.64-1.62.98-7.3-3.38-14.6-6.77-21.9-10.15-2.67-.24-5.34-.49-8-.73-2.35,1.95-4.7,3.89-7.06,5.84-.39.63-.78,1.26-1.16,1.89l-1.85.08c-5.26,1.48-6.46,6.34-8.16,10.44-3.21,7.72-7.49,9.57-14.56,5.78-1.39-.75-3.13-.86-4.71-1.26-.07-5.99-.14-11.99-.21-17.98,1.3.6,2.82.94,3.86,1.84,6.48,5.62,9.16,5.84,16.32,1.16,4.69-3.07,9.33-6.24,14.2-9,1.9-1.08,4.34-1.48,6.58-1.65,3.45-.27,6.94-.07,9.45-.07,1.68-6.43,3-11.47,4.31-16.5,3.63,2.1,7.26,4.21,10.89,6.31,3.56,2.58,7.13,5.15,10.69,7.73Z"/>
  <path class="cls-1" d="m580.97,475.06c2.29,4.94-1.01,7.63-4.13,10.48-4.36,3.98-8.9,7.84-12.82,12.23-1.75,1.95-2.22,5.06-3.2,7.67-1.26,3.34-2.45,6.7-3.66,10.06-8.34,5.2-16.68,10.39-25.03,15.59-1.99-4.72.65-11.37,5.17-12.98,9.01-3.22,12.42-8.04,12.73-17.98.35-.69.7-1.37,1.06-2.06.29-.04.58-.13.85-.25,1.37-1.26,2.74-2.52,4.11-3.77,6.72-4.69,13.12-9.6,12.89-19.01,4.01,0,8.02.02,12.04.03Z"/>
  <path class="cls-15" d="m449.26,545.94c.58,1.53,1.55,3.02,1.67,4.59.44,5.74.64,11.5.84,17.25.15,4.22,1.75,6.6,6.43,5.66.16-.03.54,1.05.81,1.62-2.16.56-4.33,1.12-6.49,1.67-1.14-2.44-3.13-4.84-3.26-7.33-.38-7.8-.05-15.64,0-23.46Z"/>
  <path class="cls-21" d="m449.18,416.99c-.4-9.23-.96-18.46-1.15-27.7-.19-9.21,6.7-13.18,14.62-8.19,11.63,7.32,22.98,15.1,34.45,22.68-4.41,5.32-7.62,11.69-15.37,13.63-4.86,1.21-9.53,3.67-13.89,6.23-6.8,3.99-12.53,2.64-15.93-4.21-.5-1.01-1.8-1.63-2.73-2.43Z"/>
  <path class="cls-24" d="m449.18,416.99c.93.8,2.22,1.42,2.73,2.43,3.4,6.85,9.13,8.2,15.93,4.21,4.37-2.56,9.04-5.02,13.89-6.23,7.75-1.94,10.95-8.31,15.37-13.63,2.33,1.33,4.66,2.66,6.99,3.99-1.32,5.03-2.63,10.07-4.31,16.5-2.51,0-6-.2-9.45.07-2.24.17-4.67.57-6.58,1.65-4.87,2.76-9.5,5.94-14.2,9-7.16,4.68-9.84,4.46-16.32-1.16-1.04-.9-2.56-1.24-3.86-1.84-.06-5-.12-10-.18-14.99Z"/>
  <path class="cls-5" d="m449.58,449.96c1.58.4,3.32.51,4.71,1.26,7.07,3.8,11.35,1.94,14.56-5.78,1.7-4.09,2.9-8.96,8.16-10.44-4.72,13.6-6.88,27.63-7.01,41.99l-20.07,1.03c-.14-1.67-.29-3.34-.43-5.02-.07-2.67-.15-5.35-.22-8.02-.03-1.67-.06-3.34-.09-5.02.13-3.34.26-6.68.39-10.02Z"/>
  <path class="cls-17" d="m449.19,459.98c.03,1.67.06,3.34.09,5.02-3.61-1.61-3.25-3.29-.09-5.02Z"/>
  <path class="cls-1" d="m449.92,478.03c6.69-.34,13.38-.69,20.07-1.03,4.42.14,8.8.31,11.73-4.04.44-.66,1.71-.76,2.6-1.12.16,1.06.33,2.13.49,3.19-1.38,1.55-3.14,2.91-4.06,4.7-5.01,9.72-9.07,19.81-10.38,30.78-.33,2.78-.13,5.63-.24,8.44-.1,2.56.16,5.25-.55,7.64-2.26,7.53-3.13,7.92-10.01,6.15-5.35-1.38-6.71-4.05-5.81-10.57.45-3.26.27-6.48-4.06-7.18.08-12.32.15-24.63.22-36.95Z"/>
  <path class="cls-26" d="m484.82,475.02c-.16-1.06-.33-2.13-.49-3.19-.16-9.29-.33-18.59-.49-27.88.78-1.95,1.55-3.89,2.33-5.84,4.62-4.01,8.6-.58,12.73,1.1,5.69,3.61,11.39,7.22,17.08,10.83h-.01c3.67,2.34,7.33,4.69,11,7.04l10.02,5.93c6.35,3.98,12.69,7.97,19.04,11.95,5.85,4.54,5.76,7.61-.49,11.72-5.23,3.44-10.56,6.75-15.84,10.12-12.21,7.78-24.42,15.56-36.63,23.34-2.34,1.64-4.68,3.28-7.02,4.93-1.03.48-2.07.95-3.08,1.45-5.18,2.56-7.28,1.36-7.78-4.65-.27-3.26-.25-6.55-.37-9.83.01-3,.03-6,.04-9-.14-2.73-.28-5.46-.43-8.19.13-6.61.26-13.22.4-19.84Z"/>
  <path class="cls-11" d="m536.98,463.01c-3.34-1.98-6.68-3.96-10.02-5.93-1.88-4.5-6.56-7.5-11-7.05h.01c-.73-1.57-1.04-3.66-2.25-4.63-4.96-3.99-10.19-7.66-15.35-11.42-2.08-1.51-5.66-2.15-3.29-6.06,7.3,3.38,14.6,6.77,21.9,10.15,10.98,7.33,22.08,14.47,32.88,22.05,6.6,4.63,12.73,9.91,19.07,14.91.23,9.4-6.17,14.31-12.89,19.01-1.37,1.26-2.74,2.52-4.11,3.77-.27.12-.55.21-.85.25-.7.63-1.41,1.25-2.11,1.88-1.91.74-3.82,1.49-5.73,2.23.19-1.43.39-2.86.56-4.07-1.52-.48-2.82-.89-4.12-1.3,5.28-3.37,10.61-6.67,15.84-10.12,6.25-4.11,6.34-7.18.49-11.72-4-7.72-11.87-9.28-19.04-11.95Z"/>
  <path class="cls-19" d="m539.68,496.8c1.3.41,2.61.82,4.12,1.3-.17,1.21-.36,2.64-.56,4.07,0,0-.11,0-.11,0-2.03,1.97-4.06,3.94-6.09,5.91-6.02,4.3-12.04,8.61-18.07,12.91-1.68.55-3.33,1.3-5.05,1.58-1.86.3-3.88.51-5.68.1-1.83-.42-3.48-1.65-5.21-2.53,12.21-7.78,24.42-15.56,36.63-23.34Z"/>
  <path class="cls-3" d="m484.8,512.04c.11,3.28.09,6.56.37,9.83.51,6.01,2.61,7.21,7.78,4.65,1.02-.5,2.05-.97,3.08-1.45,2.05,4.03,4.84,5.95,9.29,3.33.08-.05.45.39.68.6-.99.69-1.97,1.38-2.96,2.07-1.01.67-2.03,1.35-3.04,2.02-.67.31-1.34.61-2,.92-1.36.48-2.82.79-4.08,1.46-3.37,1.8-5.85,1.38-8.7-1.56-4.87-5.03-3.14-10.83-2.75-16.46.13-1.84,1.52-3.6,2.33-5.39Z"/>
  <path class="cls-22" d="m484.42,494.86c.14,2.73.28,5.46.43,8.19-1.38,3.53-3.27,6.96-4.01,10.62-1.07,5.34-3.98,10.72-.83,16.32-.69-.59-1.76-1.05-2-1.79-2.54-7.83-2.4-15.62.59-23.33.89-2.31,1.4-4.8,2.52-6.98.64-1.24,2.17-2.03,3.3-3.02Z"/>
  <path class="cls-15" d="m480.01,529.98c-3.15-5.59-.24-10.98.83-16.32.74-3.66,2.63-7.09,4.01-10.62-.01,3-.03,6-.04,9-.81,1.8-2.2,3.55-2.33,5.39-.39,5.63-2.12,11.43,2.75,16.46,2.84,2.94,5.33,3.37,8.7,1.56,1.26-.67,2.71-.98,4.08-1.46-1.56,5.1-6.47,4.1-9.92,4.6-1.81.26-4.27-2.84-6.14-4.71-.97-.97-1.31-2.59-1.93-3.91Z"/>
  <path class="cls-11" d="m506,529c-.23-.21-.6-.64-.68-.6-4.45,2.62-7.24.69-9.29-3.33,2.34-1.64,4.68-3.28,7.02-4.93,1.73.88,3.38,2.11,5.21,2.53,1.8.41,3.82.2,5.68-.1,1.72-.28,3.37-1.03,5.05-1.58-4.33,2.67-8.66,5.33-12.99,8Z"/>
  <path class="cls-11" d="m537.06,508.09c2.03-1.97,4.06-3.94,6.09-5.91-2.03,1.97-4.06,3.94-6.09,5.91Z"/>
  <path class="cls-15" d="m500.01,533.09c1.01-.67,2.03-1.35,3.04-2.02-1.01.67-2.03,1.35-3.04,2.02Z"/>
  <path class="cls-18" d="m548.98,499.94c.7-.63,1.4-1.26,2.11-1.88-.35.69-.7,1.37-1.05,2.06-.35-.06-.7-.12-1.05-.18Z"/>
  <path class="cls-13" d="m483.84,443.95c.16,9.29.32,18.59.49,27.88-.89.36-2.15.46-2.6,1.12-2.93,4.35-7.31,4.18-11.73,4.04.13-14.37,2.29-28.39,7.01-41.99.62-.03,1.23-.05,1.85-.08.73,3.52-1.66,8.76,4.98,9.02Z"/>
  <path class="cls-18" d="m495.08,427.93c-2.37,3.91,1.21,4.54,3.29,6.06,5.15,3.76,10.38,7.42,15.35,11.42,1.21.97,1.53,3.06,2.25,4.64-5.69-3.61-11.39-7.22-17.08-10.83-2.11-1.71-4.06-4.53-6.38-4.89-4.69-.72-5.6-3.25-5.43-7.13,2.67.24,5.34.49,8,.73Z"/>
  <path class="cls-22" d="m487.08,427.19c-.17,3.88.74,6.42,5.43,7.13,2.32.35,4.26,3.18,6.38,4.89-4.13-1.68-8.11-5.11-12.73-1.1-1.42-2.46-6.31-.71-6.14-5.08,2.35-1.95,4.7-3.89,7.06-5.84Z"/>
  <path class="cls-25" d="m480.02,433.03c-.16,4.37,4.73,2.62,6.14,5.08-.78,1.95-1.55,3.89-2.33,5.84-6.64-.26-4.25-5.5-4.98-9.02.39-.63.77-1.26,1.16-1.89Z"/>
  <path class="cls-18" d="m551.93,497.81c1.37-1.26,2.74-2.52,4.11-3.77-1.37,1.26-2.74,2.52-4.11,3.77Z"/>
  <path class="cls-23" d="m536.98,463.01c7.17,2.68,15.04,4.23,19.04,11.95-6.35-3.98-12.69-7.97-19.04-11.95Z"/>
  <path class="cls-18" d="m515.96,450.03c4.44-.46,9.12,2.54,11,7.05-3.67-2.35-7.33-4.7-11-7.05Z"/>
</svg>