<?xml version="1.0" standalone="no"?>
<!DOCTYPE svg PUBLIC "-//W3C//DTD SVG 20010904//EN"
 "http://www.w3.org/TR/2001/REC-SVG-20010904/DTD/svg10.dtd">
<svg version="1.0" xmlns="http://www.w3.org/2000/svg"
 width="2048.000000pt" height="2048.000000pt" viewBox="0 0 2048.000000 2048.000000"
 preserveAspectRatio="xMidYMid meet">

<g transform="translate(0.000000,2048.000000) scale(0.100000,-0.100000)"
fill="#000000" stroke="none">
<path d="M0 10240 l0 -10240 10240 0 10240 0 0 10240 0 10240 -10240 0 -10240
0 0 -10240z m9152 2863 l3 -2428 1380 -2 1380 -3 3 -250 2 -250 -1635 0 -1635
0 -2 2241 -3 2241 -155 -149 c-85 -82 -196 -187 -247 -234 l-92 -84 3 -2220
c2 -1221 4 -2220 5 -2221 1 0 331 1 734 3 l733 2 512 -512 c282 -282 512 -517
512 -522 0 -6 -640 -9 -1753 -8 -963 1 -1760 2 -1769 3 -17 0 -18 123 -18
2448 l0 2447 368 347 c452 427 667 632 842 802 162 157 463 442 540 511 30 28
105 98 165 157 61 59 113 108 117 108 5 0 9 -1092 10 -2427z m745 2405 c69
-25 148 -100 183 -173 21 -42 25 -65 25 -140 0 -76 -4 -97 -24 -135 -36 -68
-70 -108 -112 -133 l-39 -23 -2 -405 -2 -404 -146 -142 -145 -141 -5 542 -5
543 -55 44 c-39 32 -65 64 -89 112 -31 61 -35 76 -35 150 0 69 4 90 26 133 48
91 97 137 193 175 59 25 162 23 232 -3z m3471 -1673 l2 -1430 -370 -370 -370
-369 0 -1108 0 -1108 -597 0 -597 0 -143 143 c-79 78 -143 145 -143 148 0 4
262 7 582 8 320 1 585 4 587 7 3 3 4 458 3 1012 l-3 1007 73 75 c40 42 209
210 376 374 l302 298 0 1219 0 1219 -92 1 c-51 1 -563 1 -1137 0 l-1044 -2
-175 -172 c-174 -171 -188 -184 -230 -221 l-22 -19 0 206 0 206 157 155 158
155 1340 -2 1340 -2 3 -1430z m-740 -289 l2 -978 -147 -149 c-80 -82 -149
-146 -152 -143 -3 3 -6 439 -6 969 0 530 -2 966 -6 969 -4 4 -623 8 -1225 6
l-130 0 -205 -201 c-112 -110 -345 -340 -518 -512 l-314 -312 2 -775 2 -775
64 -61 c76 -72 105 -131 112 -226 10 -123 -43 -226 -154 -300 -210 -139 -479
-3 -509 257 -12 102 44 221 133 282 l53 36 0 843 0 842 606 598 605 599 882 5
c485 3 887 5 892 4 7 0 11 -336 13 -978z m-708 1 l0 -253 -285 1 -285 0 -237
-237 -237 -237 -2 -606 -2 -605 117 -1 c64 -1 298 -2 521 -3 l405 -1 3 -252 2
-253 -775 0 -775 0 0 966 0 967 218 214 c119 118 296 291 392 386 l175 172
383 -3 382 -2 0 -253z m1437 -2158 c70 -33 134 -99 167 -169 16 -34 21 -65 21
-130 0 -77 -3 -92 -33 -153 -25 -51 -47 -79 -88 -111 l-54 -42 -3 -1039 -2
-1039 -1045 1 -1045 0 -517 514 c-285 283 -518 517 -518 520 0 4 91 7 203 8
l202 1 369 -370 369 -370 843 0 844 0 0 889 0 888 -54 43 c-29 23 -69 68 -87
99 -33 54 -34 58 -34 161 0 125 14 160 88 233 111 108 239 131 374 66z m-3502
-3690 c123 -23 257 -93 361 -186 l58 -53 -104 -97 c-56 -54 -107 -99 -111
-101 -5 -2 -33 17 -61 43 -143 125 -354 158 -513 80 -71 -35 -158 -116 -194
-180 -78 -138 -81 -316 -8 -465 35 -71 128 -156 215 -198 75 -36 80 -37 192
-36 102 1 121 4 171 27 31 14 86 51 122 81 36 31 69 56 74 56 5 0 52 -38 104
-85 52 -47 97 -85 102 -85 43 0 -98 -137 -195 -189 -186 -99 -408 -122 -624
-66 -60 15 -207 83 -243 111 -81 64 -114 100 -199 209 -19 24 -81 185 -93 240
-7 33 -13 116 -12 185 0 106 4 137 26 205 92 283 350 485 659 514 91 9 195 5
273 -10z m-5475 -599 l0 -590 360 0 361 0 -3 -132 -3 -133 -527 -3 -528 -2 0
725 0 725 170 0 170 0 0 -590z m1320 408 c0 -101 1 -427 3 -726 l2 -542 -167
0 -168 0 0 725 0 725 165 0 165 0 0 -182z m1528 45 l3 -133 -231 0 -230 0 0
-590 0 -590 -170 0 -170 0 0 590 0 590 -224 0 c-124 0 -226 3 -228 8 -2 4 -2
64 0 135 l3 127 622 -2 622 -3 3 -132z m1372 2 l0 -135 -385 0 -385 0 0 -155
0 -155 340 0 340 0 0 -136 0 -135 -162 1 c-90 1 -243 1 -340 1 l-178 -1 0
-165 0 -165 400 0 400 0 0 -135 0 -135 -565 0 -565 0 0 725 0 725 550 0 550 0
0 -135z m2855 106 c151 -50 235 -109 304 -211 56 -85 75 -154 74 -275 -1 -119
-22 -194 -78 -279 -40 -61 -118 -132 -177 -162 l-36 -19 77 -110 c42 -60 116
-167 164 -237 l87 -128 -183 0 -183 0 -84 123 c-45 67 -108 159 -138 205 l-55
82 -156 0 -156 0 3 -205 3 -205 -170 0 -171 0 0 726 0 725 403 -3 c389 -4 404
-4 472 -27z m1565 18 c0 -11 11 -38 61 -144 10 -22 30 -67 45 -100 14 -33 45
-103 69 -155 24 -52 77 -171 118 -265 41 -93 96 -215 122 -270 25 -55 65 -143
87 -195 22 -52 65 -143 94 -203 l54 -107 -181 2 -182 3 -66 148 -66 147 -341
0 -341 0 -28 -62 c-15 -35 -43 -99 -62 -143 -20 -44 -39 -83 -42 -88 -4 -4
-82 -6 -174 -5 l-166 3 53 120 c29 66 90 206 135 310 103 235 219 499 259 585
16 36 55 124 87 195 31 72 67 154 80 183 l24 52 180 0 c129 0 181 -3 181 -11z
m1975 -124 l0 -130 -377 -3 -378 -2 0 -185 0 -185 183 -1 c100 0 250 -1 332
-2 l150 -2 3 -137 3 -138 -336 0 -335 0 0 -265 0 -265 -170 0 -170 0 0 725 0
725 548 -2 547 -3 0 -130z m1443 -2 l3 -133 -231 0 -230 0 0 -590 0 -590 -165
0 -165 0 -2 38 c0 20 -1 285 -2 587 l-1 550 -227 3 -228 2 0 129 c0 70 3 131
7 134 3 4 284 6 622 5 l616 -3 3 -132z m-8368 -1864 c73 -16 130 -41 130 -56
0 -12 -37 -110 -46 -122 -2 -2 -14 3 -27 12 -73 48 -205 58 -279 23 -34 -16
-38 -22 -38 -57 0 -52 22 -65 168 -101 64 -16 137 -41 162 -54 157 -85 122
-306 -59 -369 -133 -47 -341 -20 -445 57 -17 14 -17 16 9 66 15 29 31 55 36
58 5 3 24 -3 42 -14 79 -49 222 -67 294 -37 42 18 53 30 53 63 0 43 -44 69
-162 97 -200 47 -268 97 -276 204 -6 81 24 136 109 199 48 36 232 53 329 31z
m4515 -3 c115 -30 207 -104 251 -201 110 -240 -37 -496 -309 -538 -218 -34
-431 106 -468 308 -35 190 101 390 291 431 75 17 175 17 235 0z m-3449 -18
c-3 -13 -5 -42 -5 -65 l-1 -43 -120 0 -120 0 0 -305 0 -305 -85 0 -85 0 0 305
0 305 -120 0 -120 0 0 65 0 65 330 0 330 0 -4 -22z m466 -215 c3 -214 5 -242
23 -278 30 -60 75 -85 151 -85 57 0 67 3 100 32 61 54 64 70 64 333 l0 235 85
0 85 0 0 -252 c0 -216 -2 -260 -17 -302 -26 -70 -80 -127 -155 -162 -57 -26
-74 -29 -168 -29 -95 0 -111 3 -161 28 -72 35 -131 98 -157 170 -19 51 -21 78
-22 294 0 131 -1 241 0 246 0 4 38 7 84 7 l85 0 3 -237z m1352 221 c154 -39
251 -147 277 -304 17 -108 -29 -240 -108 -309 -103 -92 -179 -111 -440 -111
l-203 0 0 370 0 370 206 0 c155 0 221 -4 268 -16z m776 -354 l0 -370 -85 0
-85 0 0 370 0 370 85 0 85 0 0 -370z m7664 -3791 c21 -66 74 -154 131 -218 61
-67 236 -171 289 -171 9 0 16 -8 16 -17 0 -13 -17 -23 -61 -37 -66 -21 -154
-74 -218 -131 -67 -61 -171 -236 -171 -289 0 -9 -8 -16 -17 -16 -13 0 -23 17
-37 61 -21 66 -74 154 -131 218 -61 67 -236 171 -289 171 -9 0 -16 8 -16 18 0
12 17 22 61 36 66 21 154 74 218 131 67 61 171 236 171 289 0 9 8 16 18 16 12
0 22 -17 36 -61z"/>
<path d="M7764 13812 c-45 -42 -142 -133 -215 -202 l-134 -125 -1 -2206 c-1
-1213 1 -2220 4 -2237 l4 -32 1262 0 1261 0 -220 220 -220 220 -827 0 -828 0
-2 2219 -3 2220 -81 -77z"/>
<path d="M9725 15302 c-36 -26 -65 -76 -65 -114 0 -34 6 -46 36 -74 62 -59
149 -42 190 37 20 40 10 87 -27 127 -26 27 -37 32 -77 32 -26 0 -52 -4 -57 -8z"/>
<path d="M9725 11438 c-64 -36 -83 -109 -43 -168 56 -82 164 -67 205 28 38 91
-75 189 -162 140z"/>
<path d="M13165 11193 c-38 -20 -52 -39 -60 -81 -19 -102 93 -180 178 -123 80
52 71 163 -16 204 -43 21 -63 21 -102 0z"/>
<path d="M10918 7413 c-2 -5 -2 -115 0 -245 l3 -238 182 0 c239 0 295 19 358
118 25 40 29 55 29 122 0 129 -56 204 -175 235 -62 16 -391 22 -397 8z"/>
<path d="M12802 7288 c-17 -34 -47 -103 -67 -153 -20 -49 -43 -103 -51 -120
-29 -62 -82 -200 -79 -205 5 -8 416 -9 441 -1 21 6 19 11 -38 141 -32 74 -82
191 -110 260 -28 69 -54 129 -58 133 -5 5 -22 -20 -38 -55z"/>
<path d="M12385 5549 c-53 -15 -112 -74 -134 -135 -36 -95 -24 -179 36 -245
98 -108 250 -113 345 -12 114 120 75 315 -76 384 -43 20 -120 23 -171 8z"/>
<path d="M10655 5549 c-3 -8 -4 -113 -3 -234 l3 -220 116 1 c134 2 167 13 228
79 101 109 71 278 -62 351 -46 25 -64 28 -164 32 -90 4 -114 2 -118 -9z"/>
</g>
</svg>
